<?xml version="1.0" encoding="UTF-8" standalone="no"?>
<!-- Created with Inkscape (http://www.inkscape.org/) -->

<svg
   xmlns:dc="http://purl.org/dc/elements/1.1/"
   xmlns:cc="http://creativecommons.org/ns#"
   xmlns:rdf="http://www.w3.org/1999/02/22-rdf-syntax-ns#"
   xmlns:svg="http://www.w3.org/2000/svg"
   xmlns="http://www.w3.org/2000/svg"
   xmlns:sodipodi="http://sodipodi.sourceforge.net/DTD/sodipodi-0.dtd"
   xmlns:inkscape="http://www.inkscape.org/namespaces/inkscape"
   version="1.1"
   id="svg1887"
   width="988.15997"
   height="493.76001"
   viewBox="0 0 988.15996 493.76001"
   sodipodi:docname="faq.svg"
   inkscape:version="0.92.3 (2405546, 2018-03-11)">
  <metadata
     id="metadata1893">
    <rdf:RDF>
      <cc:Work
         rdf:about="">
        <dc:format>image/svg+xml</dc:format>
        <dc:type
           rdf:resource="http://purl.org/dc/dcmitype/StillImage" />
        <dc:title></dc:title>
      </cc:Work>
    </rdf:RDF>
  </metadata>
  <defs
     id="defs1891" />
  <sodipodi:namedview
     pagecolor="#ffffff"
     bordercolor="#666666"
     borderopacity="1"
     objecttolerance="10"
     gridtolerance="10"
     guidetolerance="10"
     inkscape:pageopacity="0"
     inkscape:pageshadow="2"
     inkscape:window-width="2560"
     inkscape:window-height="1377"
     id="namedview1889"
     showgrid="false"
     fit-margin-top="0"
     fit-margin-left="0"
     fit-margin-right="0"
     fit-margin-bottom="0"
     inkscape:zoom="1.029141"
     inkscape:cx="395.19433"
     inkscape:cy="250.49099"
     inkscape:window-x="-8"
     inkscape:window-y="-8"
     inkscape:window-maximized="1"
     inkscape:current-layer="g6155" />
  <g
     id="g6155"
     transform="translate(-14.72,-10.24)">
    <path
       style="fill:#fdfdfd;stroke-width:0.31999999"
       d="M 0,259.83999 V 0 h 504.32 504.32 v 259.83999 259.84 H 504.32 0 Z"
       id="path6167"
       inkscape:connector-curvature="0" />
    <path
       style="fill:#759696;fill-opacity:1;stroke-width:0.31999999"
       d="m 14.144,504.57599 c -0.2112,-0.2112 -0.384,-0.7584 -0.384,-1.216 0,-0.4576 0.1728,-1.0048 0.384,-1.216 0.295867,-0.29587 14.415493,-0.3879 61.52,-0.40102 l 61.136,-0.017 -2.56,-0.76055 C 122.81111,497.56994 111.19331,491.86773 98.4,483.37455 86.152461,475.2437 74.376387,465.55071 65.469568,456.26921 c -3.98231,-4.14983 -5.310445,-5.81491 -4.936483,-6.18887 0.08839,-0.0884 4.756611,-0.81884 10.373817,-1.62323 9.449812,-1.35321 11.541613,-1.79469 10.346608,-2.18365 C 81.00408,446.19225 74.824,445.09743 67.52,443.8405 60.216,442.58358 53.929469,441.43049 53.54993,441.27814 52.331891,440.78911 45.924659,431.027 40.634534,421.60009 35.094058,411.72706 27.651867,395.62406 23.183311,383.84009 19.487988,374.0951 14.72,359.69027 14.72,358.271 c 0,-0.32563 0.277756,-0.51101 0.765695,-0.51101 1.842638,0 20.0217,4.53277 21.191588,5.28391 0.527303,0.33856 0.943079,1.50233 1.877584,5.25548 0.660167,2.65133 1.313879,4.82061 1.452691,4.82061 0.279536,0 0.504928,-1.62857 0.808237,-5.84 0.174701,-2.42573 0.279882,-2.8 0.786835,-2.8 0.720474,0 5.802378,1.58653 12.79737,3.99523 5.120672,1.7633 17.652266,6.61088 18.497923,7.15552 0.305799,0.19696 5.819085,20.83572 5.821687,21.79325 2.14e-4,0.0792 0.135888,0.007 0.301494,-0.16 0.16561,-0.1672 0.555168,-4.09689 0.865686,-8.73267 0.310522,-4.63578 0.71593,-8.63565 0.900909,-8.88861 0.280029,-0.38297 1.135818,-0.0597 5.112698,1.93146 2.627005,1.31529 4.894102,2.31865 5.037987,2.22973 C 91.082272,383.715 91.2,381.55714 91.2,379.00873 c 0,-18.73066 3.365392,-44.20554 8.81064,-66.69362 1.69757,-7.01069 1.87508,-7.49564 2.5961,-7.09214 0.27297,0.15276 3.93812,3.7176 8.14479,7.92187 5.57928,5.5761 7.64847,7.84447 7.64847,8.38466 0,0.40733 -0.58122,2.63353 -1.29159,4.94717 -0.71038,2.31363 -1.24603,4.43088 -1.19033,4.70496 0.0589,0.28969 1.1623,-1.0089 2.63548,-3.10164 1.39382,-1.98 2.61347,-3.59779 2.71033,-3.5951 0.34176,0.01 0.84027,0.5023 3.2322,3.1951 7.60961,8.56679 18.22391,22.16058 18.22391,23.33943 0,0.35769 -1.37868,5.19261 -3.06373,10.74425 -1.68505,5.55165 -3.00817,10.26064 -2.94025,10.46439 0.0679,0.20374 2.46302,-2.96823 5.32246,-7.0488 2.85943,-4.08061 5.32763,-7.41927 5.48487,-7.41927 0.33801,0 1.43003,1.55732 4.15125,5.92 l 1.99599,3.2 -0.2031,-1.6 c -1.53863,-12.12156 -3.23435,-37.45507 -4.36956,-65.28 -0.20105,-4.928 -0.40762,-9.00528 -0.45904,-9.06063 -0.13826,-0.14882 -2.22157,0.27327 -2.64723,0.53635 -0.27219,0.16822 -0.24914,0.67789 0.0893,1.9755 1.7797,6.82251 2.45555,17.31892 1.36627,21.2191 -0.96353,3.44994 -3.16925,5.63564 -5.68728,5.63564 -2.37235,0 -5.20243,-2.50987 -6.80204,-6.0324 -1.84595,-4.06501 -4.14331,-15.79061 -3.58862,-18.3161 l 0.20669,-0.94102 -2.09126,0.21426 c -2.0217,0.20713 -2.09655,0.18889 -2.25044,-0.54822 -0.0875,-0.41936 -1.10916,-10.26648 -2.27023,-21.88248 -2.72744,-27.28666 -4.7961,-46.65374 -5.69101,-53.27999 -1.27766,-9.46032 -0.88022,-17.84312 2.79163,-58.88 0.6063,-6.776 1.15323,-13.19623 1.21541,-14.26717 0.14917,-2.56889 1.31318,-4.90548 3.79066,-7.60922 3.3828,-3.69172 8.2049,-7.23102 21.40921,-15.71381 1.848,-1.1872 3.98848,-2.86916 4.75662,-3.73767 2.15141,-2.43254 9.63529,-7.95213 10.7821,-7.95213 0.57356,0 0.87804,-0.75792 1.42441,-3.5457 l 0.4127,-2.10569 -1.49233,-1.83218 c -1.51115,-1.85528 -3.10652,-4.714243 -3.92468,-7.033149 -0.28618,-0.811129 -1.1295,-1.887011 -2.3323,-2.975488 -5.39037,-4.878 -6.57334,-12.530831 -3.03142,-19.610719 l 1.11094,-2.220631 -0.95975,-1.700588 c -1.48752,-2.635738 -2.08621,-5.378685 -1.60857,-7.369744 0.60673,-2.529107 3.40533,-5.176957 3.90077,-3.69064 0.0778,0.233309 1.17124,-0.531354 2.66667,-1.864794 4.94424,-4.408678 9.25659,-7.230988 12.93484,-8.465491 1.79858,-0.603645 2.51295,-0.67208 5.28,-0.505811 2.81805,0.169331 3.52269,0.09729 5.90356,-0.603546 3.32155,-0.97774 4.18083,-1.008147 4.40372,-0.15583 0.20731,0.792746 0.52729,0.791763 2.28766,-0.007 2.29173,-1.039894 2.85063,-0.773405 2.33029,1.111104 l -0.30722,1.112675 2.92734,0.09162 c 2.53828,0.07945 2.94219,0.169264 3.03911,0.675788 0.0615,0.32129 -0.14211,0.769812 -0.45242,0.996714 -0.48824,0.357011 -0.27079,0.443974 1.61518,0.645946 4.69673,0.502976 7.97762,2.106931 9.1148,4.456028 0.36189,0.747565 0.65798,1.719613 0.65798,2.160099 0,1.606186 -1.01312,4.142858 -2.60547,6.52361 l -1.62951,2.436323 0.97229,2.138557 c 1.31052,2.882518 1.66009,4.315232 1.65388,6.77856 -0.005,2.103248 -0.73079,4.31247 -1.80651,5.501132 -0.44218,0.488599 -0.45287,0.923604 -0.0922,3.753588 0.65969,5.176499 -0.16481,9.470396 -2.78546,14.506457 -1.55401,2.98629 -6.11172,7.63222 -8.95301,9.12631 -1.08131,0.5686 -2.03848,1.22265 -2.12704,1.45345 -0.43966,1.14573 0.22708,2.13942 2.74514,4.09127 3.02999,2.34867 3.85019,2.67566 20.00013,7.97358 12.04734,3.95208 13.43297,4.62752 15.35103,7.48311 0.57379,0.85425 1.35108,2.57871 1.72731,3.83214 0.37623,1.25343 4.41021,13.14005 8.96441,26.41472 8.94968,26.08669 8.92066,25.9811 9.60636,34.95765 0.65085,8.5203 -0.3561,14.37502 -2.91503,16.94886 -2.12317,2.13553 -8.53638,3.65673 -16.91189,4.01147 -4.26167,0.1805 -4.8661,0.27201 -4.73294,0.71659 0.82598,2.75782 7.00674,37.71913 7.38794,41.78967 0.19178,2.04792 0.14123,2.34029 -0.58949,3.40952 l -0.79925,1.16951 0.92454,6.03049 c 2.45555,16.01672 4.44609,33.94534 8.61011,77.55048 1.54612,16.19078 2.37909,22.82925 3.19823,25.48886 1.44329,4.68612 4.31756,29.05498 8.3167,70.51114 2.11541,21.92896 2.51778,26.52809 2.37243,27.11744 -0.10792,0.43757 0.94291,1.20246 4.72944,3.44256 9.17596,5.42845 17.20775,11.45667 20.6783,15.52 2.2825,2.67235 3.73467,5.68627 3.45586,7.17245 -0.36909,1.96745 -2.44638,3.44486 -6.30114,4.4815 -1.53859,0.41376 1.83614,0.46621 31.20819,0.48499 18.11333,0.0115 32.87115,-0.0412 32.79512,-0.11715 -0.076,-0.076 -3.08762,-0.87827 -6.69242,-1.78278 -3.6048,-0.90452 -7.0087,-1.92548 -7.56419,-2.26877 -2.85968,-1.76736 -4.52538,-5.16138 -4.11635,-8.38733 0.28313,-2.23312 2.75497,-13.45002 4.50649,-20.45002 0.77991,-3.11689 1.41802,-5.7998 1.41802,-5.96198 0,-0.16221 -0.63184,-0.45402 -1.40406,-0.64848 -0.77223,-0.19446 -1.4754,-0.53942 -1.56256,-0.76659 -0.0872,-0.22717 0.89772,-7.24915 2.18867,-15.60445 1.29094,-8.35526 2.57632,-17.25277 2.85641,-19.77225 1.55853,-14.02058 6.51533,-33.64196 15.05101,-59.57914 l 2.36944,-7.2 8.81827,-61.12 c 4.85005,-33.616 8.84352,-61.41138 8.87434,-61.76752 0.0516,-0.59573 -4.31862,-7.27222 -12.56278,-19.19248 -3.53504,-5.11136 -3.9409,-5.83681 -4.98861,-8.91725 -4.1136,-12.09448 -6.69367,-49.64437 -4.09258,-59.56275 1.30147,-4.96274 4.12115,-8.55285 8.37888,-10.66831 1.36045,-0.67595 3.15757,-1.41482 3.99357,-1.64193 0.836,-0.22711 1.52,-0.44982 1.52,-0.4949 0,-0.0451 -0.83866,-0.95246 -1.86368,-2.0164 -2.12816,-2.20896 -3.65638,-4.86607 -4.36634,-7.59175 -0.84118,-3.22952 -0.76476,-3.47961 1.84164,-6.02747 4.93494,-4.82411 6.0646,-10.40117 4.56422,-22.533206 -0.35331,-2.856828 -0.51638,-5.860153 -0.43434,-8 0.11415,-2.978079 0.24925,-3.65615 1.03325,-5.186031 2.15981,-4.214509 7.73351,-10.232147 12.24285,-13.218019 3.31536,-2.195261 7.93379,-4.291034 11.53366,-5.233779 4.42474,-1.158775 9.97312,-1.223629 12.67076,-0.148106 1.02412,0.408304 1.94355,0.954781 2.04316,1.214397 0.14749,0.38431 0.60896,0.431933 2.4834,0.256281 4.65865,-0.43655 9.53891,1.709165 15.87395,6.979379 3.90982,3.252618 6.56835,7.584707 7.99632,13.030007 0.79478,3.0307 1.00717,8.951743 0.51085,14.239847 l -0.27034,2.88 1.03923,1.5483 c 0.62928,0.93756 2.35927,2.56735 4.38583,4.13177 5.20108,4.01511 6.15257,5.80363 6.15939,11.578 0.004,3.61588 0.46854,5.75936 1.76249,8.13674 1.11661,2.05157 3.60272,4.53648 5.47344,5.47076 0.79552,0.39731 1.53216,0.94578 1.63693,1.21883 0.26551,0.69191 -1.24697,1.916 -2.70553,2.18962 -4.36679,0.81922 -11.71146,-5.30407 -15.01364,-12.51693 -0.44243,-0.9664 -0.8855,-1.7571 -0.98464,-1.7571 -0.0991,0 -0.1022,2.484 -0.007,5.52 0.18781,5.97859 0.73847,8.88029 2.3194,12.22215 0.94316,1.99365 3.46867,4.92063 5.13356,5.94958 1.5264,0.94338 1.45117,1.77768 -0.20508,2.27391 -1.07616,0.32243 -1.2792,0.50779 -1.15322,1.05284 0.0841,0.36384 1.76051,5.98952 3.72534,12.50152 6.09386,20.19685 9.96698,34.08197 11.38074,40.8 0.27779,1.32 0.5567,3.696 0.61978,5.28 0.0917,2.30184 0.35136,3.55453 1.2934,6.24 1.50448,4.28884 4.04199,10.24583 7.25888,17.04085 1.39584,2.94846 2.44916,5.50446 2.34068,5.68 -0.10852,0.17553 -0.60068,0.31915 -1.0937,0.31915 -0.49306,0 -1.56458,0.0916 -2.38112,0.2035 -1.80685,0.24765 -1.7833,0.0249 -0.68736,6.50068 l 0.79734,4.71124 -1.132,4.61229 c -1.40179,5.7116 -2.40323,9.0194 -3.83414,12.66422 -0.64755,1.64948 -1.10851,3.38891 -1.10851,4.18295 0,2.19562 -0.91949,10.61967 -1.93031,17.68512 -0.58278,4.07363 -3.79664,20.32601 -8.47936,42.88 l -7.54083,36.32 -6.86477,49.2296 c -3.77571,27.0763 -6.86486,49.42199 -6.86486,49.65716 0,0.86263 -0.92253,1.39911 -2.08237,1.21088 -0.74,-0.12009 -1.11763,-0.0557 -1.11763,0.19069 0,1.73904 1.05027,13.35315 1.22045,13.49613 0.12077,0.10144 1.58755,0.73622 3.25955,1.41065 1.672,0.67444 4.24813,1.77943 5.72474,2.45559 1.47664,0.67613 2.86259,1.22931 3.0799,1.22931 0.21731,0 0.85837,-1.32656 1.42454,-2.9479 2.28506,-6.54378 6.11303,-13.37741 11.5194,-20.56432 4.56912,-6.07399 9.29142,-10.94941 9.29142,-9.59277 0,0.80243 1.38979,7.72582 1.59318,7.93661 0.32464,0.33648 0.45488,-0.3081 1.31588,-6.51162 0.46003,-3.31475 0.86128,-5.15933 1.20966,-5.56093 1.16979,-1.34848 10.21728,-6.98393 15.58605,-9.70812 8.12617,-4.12336 19.37504,-8.70973 20.39865,-8.31693 0.5145,0.19744 0.441,0.80045 -0.76876,6.30598 -0.65613,2.98602 -1.3304,4.16 -2.38928,4.16 -0.23303,0 -0.82909,0.15987 -1.32455,0.35523 -0.83702,0.33008 -0.85549,0.37383 -0.26083,0.61751 0.352,0.14425 1.036,0.27241 1.52,0.28477 0.64752,0.0166 0.88,0.18528 0.88,0.63862 0,0.80154 -2.3471,8.44541 -3.5608,11.59658 l -0.94467,2.4527 -2.14727,0.64362 c -1.18099,0.35398 -3.01126,0.8879 -4.06726,1.18649 -1.056,0.29856 -2.06256,0.62707 -2.23677,0.73002 -0.56128,0.33158 1.20627,0.62982 3.92682,0.66256 1.97059,0.0237 2.69469,0.14829 2.82422,0.48585 0.28343,0.73853 -3.62966,8.30042 -6.62701,12.80647 -6.42851,9.66422 -17.13289,19.58406 -26.64368,24.69091 l -2.60358,1.39798 73.296,0.005 c 56.57536,0.004 73.38358,0.0929 73.68,0.38935 0.49501,0.495 0.49501,1.93699 0,2.432 -0.56019,0.56019 -578.831801,0.56019 -579.392,0 z m 212.56377,-3.65942 c -1.51257,-1.6321 -2.04303,-5.60996 -1.46645,-10.99658 0.33615,-3.14051 1.6295,-11.6175 2.22831,-14.60506 l 0.26559,-1.32502 -1.21154,-0.36301 c -0.66852,-0.20029 -1.49393,-0.75955 -1.84159,-1.24781 -3.91203,-5.49395 -7.3274,-37.66499 -9.973,-93.94067 l -0.3442,-7.3216 -10.87357,-38.42287 c -5.98046,-21.13257 -10.91704,-38.46635 -10.97018,-38.51949 -0.13596,-0.13595 -0.45026,41.57549 -0.85407,113.34553 -0.19013,33.792 -0.41465,61.90333 -0.49894,62.46963 -0.13395,0.90003 -0.40923,1.15184 -2.18645,2.00003 -1.84672,0.88135 -2.64008,1.60528 -2.21982,2.02554 0.0868,0.0867 0.7198,-0.063 1.40675,-0.33286 1.13315,-0.44512 1.32232,-0.44256 2.03967,0.0275 0.58618,0.38406 0.84517,0.91276 1.00133,2.04412 0.11585,0.83936 0.54824,3.54208 0.96086,6.00608 1.9001,11.34644 1.80847,16.8618 -0.31824,19.15658 l -0.78167,0.84336 H 209.28 227.48944 Z m 169.86045,-0.19658 c -0.50134,-0.9176 -0.56358,-1.9063 -0.52873,-8.4 0.0352,-6.57398 0.37702,-14.89126 0.96144,-23.39677 l 0.20041,-2.91673 -1.12979,-0.21197 c -0.62137,-0.11658 -1.20864,-0.41747 -1.30502,-0.66867 -0.0964,-0.25117 1.53475,-18.21127 3.62473,-39.9113 l 3.8,-39.45456 1.61984,-42.4 c 0.89088,-23.32 1.70653,-43.552 1.81255,-44.96 0.10601,-1.408 0.0876,-2.4555 -0.041,-2.32778 -0.12858,0.12772 -7.20279,17.91172 -15.72045,39.52001 l -15.48672,39.28777 -11.85968,45.6 c -6.52282,25.08 -11.99162,45.73911 -12.15283,45.90909 -0.16125,0.17002 -0.75869,0.31402 -1.32768,0.32 l -1.0345,0.0109 -0.6993,8.32 c -0.62748,7.46611 -0.64864,8.35283 -0.20588,8.64 9.95222,6.45497 13.66345,9.17593 16.55462,12.13741 1.82746,1.8719 2.86243,3.94224 2.56438,5.12979 l -0.204,0.8128 h 15.56292 15.56291 l -0.56823,-1.04 z M 228.4751,188.88 c -0.003,-0.132 -0.13887,-0.45183 -0.3026,-0.71074 -0.36868,-0.58297 -0.80122,-0.21837 -0.54207,0.45693 0.19138,0.49875 0.85373,0.69777 0.84467,0.25381 z m 295.83306,73.12023 C 524.22458,261.7801 524.19306,212.352 524.23811,152.16 L 524.32,42.719999 542.16,42.637311 560,42.554626 V 26.301313 c 0,-12.214799 0.0954,-16.348727 0.384,-16.6373132 0.56006,-0.5600771 442.5119,-0.5600771 443.072,0 0.5596,0.5595632 0.5596,221.7124302 0,222.2720002 -0.2903,0.29031 -5.16909,0.384 -19.99683,0.384 h -19.61283 l -0.0832,14.96 -0.0832,14.95999 -219.60995,0.0802 c -175.52055,0.0641 -219.64045,-1.2e-4 -219.76189,-0.32 z M 1000.32,120.8 V 12.8 H 781.92 563.52 V 27.679745 42.55949 l 200.08,0.08026 200.08,0.08025 0.0805,93.04 0.0806,93.04 h 18.23945 18.23945 z"
       id="path6165"
       inkscape:connector-curvature="0" />
    <path
       style="fill:#698a96;fill-opacity:1;stroke-width:0.31999999"
       d="m 14.204718,504.18345 c -0.09643,-0.2513 -0.127942,-0.7914 -0.07002,-1.2002 l 0.105306,-0.74326 63.413382,-0.16 c 34.877354,-0.088 63.507054,-0.2537 63.621554,-0.36822 0.1145,-0.11453 -0.35387,-0.3032 -1.04083,-0.41927 -0.68696,-0.11606 -2.17266,-0.67033 -3.30156,-1.23177 -1.62685,-0.80903 -2.17948,-1.28077 -2.66456,-2.27444 -0.53787,-1.10182 -0.56514,-1.43132 -0.2251,-2.72 0.55533,-2.1046 2.31241,-4.62 5.21246,-7.46201 4.40175,-4.3137 13.7862,-10.90461 22.145,-15.55296 3.17367,-1.76487 3.33158,-1.89962 2.61096,-2.22794 -0.91607,-0.41741 -1.02515,-1.07193 -1.29051,-7.74339 -1.13013,-28.41347 -4.40671,-65.04505 -7.82839,-87.52 -2.33235,-15.3198 -4.32597,-41.936 -5.48886,-73.28 -0.20896,-5.632 -0.48088,-10.35545 -0.60429,-10.49655 -0.24604,-0.28134 -3.11946,0.34855 -3.35914,0.73636 -0.082,0.1326 0.1333,1.53455 0.47833,3.11545 1.65087,7.56401 2.15848,16.23214 1.1622,19.84628 -0.98467,3.57204 -2.67733,5.19846 -5.4102,5.19846 -2.58984,0 -4.2501,-1.3665 -6.10112,-5.02161 -1.8293,-3.61222 -3.72914,-12.50623 -3.72927,-17.45839 -7e-5,-2.76941 -0.0153,-2.78317 -2.36201,-2.13159 -0.97151,0.26975 -1.33162,0.25194 -1.65377,-0.0818 -0.27777,-0.28777 -1.15515,-7.76946 -2.69563,-22.98663 -2.63863,-26.0648 -5.26185,-50.50184 -5.93901,-55.3258 -0.2583,-1.84008 -0.46964,-4.94604 -0.46964,-6.90214 0,-6.34363 1.41238,-25.53353 3.68679,-50.09205 0.61123,-6.6 1.11176,-12.661 1.11227,-13.46889 0.002,-2.36883 1.57888,-5.10844 4.7817,-8.30498 3.4937,-3.48684 7.9648,-6.79879 16.44051,-12.17829 4.57612,-2.90444 7.27567,-4.84101 8.36724,-6.0024 3.06962,-3.26594 9.91089,-8.15269 11.16739,-7.97692 0.56852,0.0795 0.72727,-0.22189 1.21588,-2.30852 0.80262,-3.42764 0.75827,-3.74319 -0.80671,-5.74009 -1.74139,-2.222 -3.17403,-4.799842 -3.87075,-6.964929 -0.32458,-1.008644 -0.76526,-1.73785 -1.11788,-1.849764 -0.93996,-0.298332 -3.72176,-3.440716 -4.62658,-5.226297 -2.48215,-4.898288 -2.3852,-10.106403 0.28691,-15.412502 l 1.12499,-2.233943 -0.93107,-1.526236 C 154.48585,68.740709 153.6,65.982114 153.6,64.41164 c 0,-1.39287 0.77696,-3.2251 1.83684,-4.331641 0.93624,-0.977453 1.61003,-1.122928 1.88478,-0.406935 0.13322,0.347175 0.85487,-0.137881 2.71172,-1.822694 3.88253,-3.522806 7.20318,-5.906905 10.36666,-7.442854 3.71239,-1.802461 6.03216,-2.286983 8.47129,-1.769367 1.68075,0.356682 2.07431,0.313165 5.46988,-0.604809 3.34604,-0.904583 3.69204,-0.94441 4.04729,-0.465863 0.21365,0.287805 0.43934,0.675914 0.50152,0.862464 0.0704,0.211162 0.73123,0.07326 1.75086,-0.365379 2.47036,-1.062717 2.72086,-0.987901 2.46243,0.735437 l -0.21594,1.44 h 2.91634 c 2.26375,0 2.91633,0.09864 2.91633,0.440819 0,0.242448 -0.216,0.62008 -0.48,0.839181 -0.82707,0.68641 -0.53231,0.959837 1.04,0.96473 3.9629,0.01232 8.26016,1.816646 9.54396,4.00728 1.4308,2.441491 0.934,4.89502 -1.83008,9.037996 l -1.55452,2.330003 0.75607,1.509997 c 2.527,5.046816 2.64574,9.379757 0.33983,12.400665 -1.05556,1.382855 -1.08387,1.492247 -0.7601,2.936976 0.18496,0.825341 0.33363,2.87576 0.33038,4.556487 -0.0165,8.532435 -4.42756,15.996427 -12.02554,20.348637 -1.87842,1.07598 -2.06859,1.30132 -2.0751,2.45876 -0.004,0.72493 0.50316,1.26321 3.01548,3.2 l 3.02039,2.32847 8.09961,2.78205 c 4.45479,1.53013 10.61962,3.58292 13.69962,4.56175 3.08,0.97883 6.35409,2.21273 7.27576,2.742 2.54952,1.46406 4.04279,3.59024 5.23431,7.45282 0.55334,1.79375 4.64452,13.84696 9.09151,26.7849 9.39662,27.33823 9.27842,26.85115 9.27842,38.23648 0,5.76463 -0.0722,6.62977 -0.72752,8.71442 -0.92478,2.942 -2.36094,4.51438 -5.03248,5.50985 -3.7752,1.40672 -9.48514,2.24868 -15.28,2.2531 -3.32567,0.003 -3.44,0.0259 -3.44,0.70364 0,0.38556 0.49793,3.22956 1.10651,6.32 1.75938,8.93439 4.53952,24.34787 5.43296,30.12115 1.04067,6.7247 1.04997,7.97288 0.0682,9.15328 -0.4138,0.49751 -0.70499,1.04855 -0.64709,1.22455 0.29425,0.89437 3.12021,21.73485 4.12222,30.4 1.13945,9.85361 3.24147,30.61082 5.4279,53.6 1.47569,15.5162 2.21429,21.32128 3.19107,25.08074 1.01042,3.88886 2.0258,11.12963 3.84225,27.39926 2.91085,26.07191 7.00796,68.52186 6.73391,69.7696 -0.17293,0.78736 0.0514,0.97779 3.58882,3.04659 17.82754,10.42624 27.50958,19.94861 24.85402,24.44413 -0.75773,1.28272 -3.53398,2.68989 -6.69413,3.39296 -1.31263,0.29203 -2.3866,0.58851 -2.3866,0.65885 0,0.0703 15.516,0.12349 34.48,0.11814 23.07309,-0.006 34.29898,-0.11526 33.93277,-0.32873 -0.30096,-0.17549 -3.54474,-1.08672 -7.20839,-2.02503 -3.66364,-0.9383 -7.08937,-1.93008 -7.61276,-2.20397 -2.3714,-1.24086 -4.29229,-4.37574 -4.30458,-7.02505 -0.008,-1.79264 1.52755,-9.2576 4.13203,-20.08317 1.03683,-4.30963 1.82496,-7.93309 1.75136,-8.05216 -0.0736,-0.11907 -0.69776,-0.31174 -1.38704,-0.42822 -0.68928,-0.11645 -1.33552,-0.42611 -1.43609,-0.68816 -0.10055,-0.26205 0.95049,-7.9193 2.33564,-17.0161 1.38516,-9.09683 2.68935,-18.12368 2.89824,-20.05968 1.28432,-11.90281 5.96548,-30.32009 14.27428,-56.16 l 3.03539,-9.44 8.63792,-60.16 c 4.75088,-33.088 8.77603,-60.73599 8.9448,-61.43999 0.35526,-1.48197 0.74496,-0.83536 -10.02288,-16.63143 -6.30794,-9.25359 -6.88957,-10.35427 -8.21549,-15.54743 -3.67306,-14.38585 -5.45344,-47.99688 -2.99926,-56.62114 1.62086,-5.69592 5.44595,-9.33264 11.96406,-11.37485 0.968,-0.30329 1.81286,-0.5969 1.8775,-0.65247 0.0646,-0.0556 -0.80563,-1.01062 -1.93388,-2.12235 -3.09956,-3.05413 -5.06362,-7.03083 -5.06362,-10.25254 0,-1.11984 0.22266,-1.46238 2.19811,-3.38192 2.48618,-2.41579 3.63735,-4.43739 4.54282,-7.97774 0.77833,-3.04328 0.81497,-8.20545 0.0993,-13.998132 -0.28269,-2.288 -0.53338,-5.818761 -0.55712,-7.846134 -0.0416,-3.552947 -0.006,-3.761066 0.98992,-5.76 2.49622,-5.011149 7.779,-10.515766 13.59817,-14.169145 7.10986,-4.463706 16.45607,-6.44593 22.12983,-4.693482 1.25878,0.3888 2.23958,0.89624 2.43382,1.25921 0.29376,0.548883 0.5975,0.590496 3.12525,0.42814 2.45689,-0.157807 3.08624,-0.08003 5.13776,0.634935 4.32576,1.507581 10.57235,5.927094 13.39485,9.476969 1.77532,2.232877 4.02761,6.839261 4.78656,9.789507 0.58672,2.280922 0.77193,8.669143 0.42675,14.720002 -0.13811,2.4209 -0.095,2.63531 0.79376,3.94612 0.51689,0.76237 2.49641,2.60736 4.39894,4.09998 5.32339,4.17643 6.01815,5.42092 6.02599,10.79413 0.005,3.52824 0.57148,6.51303 1.62924,8.58636 0.95693,1.87577 3.67005,4.64543 5.64602,5.76372 0.924,0.52293 1.68,1.15515 1.68,1.40494 0,0.24978 -0.468,0.7395 -1.04,1.08825 -2.60784,1.59004 -6.35258,0.22847 -10.4489,-3.79921 -2.8087,-2.76162 -4.13542,-4.58567 -5.83881,-8.02765 l -1.17952,-2.38336 -0.23095,1.231 c -0.32662,1.74116 0.35028,11.16015 0.96701,13.45572 1.14711,4.26956 3.63859,8.04645 6.45709,9.78838 1.53533,0.94889 1.42323,1.78348 -0.28592,2.12845 -1.06912,0.21579 -1.34986,0.40803 -1.31254,0.89883 0.0262,0.34339 1.5071,5.44834 3.2911,11.34434 9.14202,30.21367 12.49331,43.01853 12.49891,47.75617 0.004,3.54177 2.9305,11.46241 8.76906,23.73508 1.1647,2.44819 2.04781,4.52108 1.96246,4.60643 -0.0854,0.0854 -1.15923,0.24721 -2.38637,0.35969 -1.22713,0.11248 -2.31465,0.28799 -2.4167,0.39003 -0.10202,0.10203 0.17891,2.4434 0.62429,5.20303 0.44537,2.75964 0.80979,5.48285 0.80979,6.05157 0,2.21441 -2.96566,13.04621 -4.81344,17.58052 -0.73254,1.79769 -0.94525,2.81988 -0.94826,4.55747 -0.004,2.55514 -0.95024,11.4352 -1.93436,18.16209 -0.36676,2.50685 -4.12196,21.26191 -8.34493,41.67791 l -7.67815,37.12 -6.88374,49.43664 c -3.78605,27.19015 -6.95757,49.51014 -7.04784,49.6 -0.0903,0.0899 -0.76378,0.16336 -1.4967,0.16336 H 415.2 l 0.1121,2.24 c 0.0616,1.232 0.27763,4.39341 0.48,7.02538 l 0.3679,4.78537 1.92,0.79258 c 5.89424,2.43309 14.29149,6.26441 16.15056,7.36886 1.17651,0.69898 2.8649,1.92339 3.75197,2.72096 3.20275,2.87952 3.03661,4.59264 -0.62291,6.42343 -1.23511,0.61788 -2.46628,1.12342 -2.73594,1.12342 -0.2697,0 -0.38237,0.108 -0.2504,0.24 0.13197,0.132 35.97597,0.312 79.65331,0.4 l 79.41341,0.16 v 1.12 1.12 l -289.52997,0.0802 c -250.611928,0.0694 -289.553549,0.0189 -289.705312,-0.37673 z m 213.814122,-2.59364 c -0.34164,-0.2584 -0.71112,-0.46982 -0.82108,-0.46982 -0.10995,0 -0.5393,-0.60384 -0.9541,-1.34189 -1.42776,-2.54035 -1.28696,-8.04883 0.4769,-18.65811 0.40966,-2.464 0.80763,-4.912 0.88437,-5.44 0.0768,-0.528 0.19703,-1.1608 0.2673,-1.40618 0.0822,-0.28713 -0.27155,-0.55411 -0.99223,-0.74886 -1.42567,-0.38525 -1.82591,-0.72602 -2.5732,-2.19082 -3.57299,-7.00364 -7.48976,-46.38799 -9.43325,-94.85414 l -0.19247,-4.8 -11.09126,-39.30825 c -6.95883,-24.66266 -11.17272,-39.08909 -11.3099,-38.72 -0.12026,0.32354 -0.45625,40.18825 -0.74664,88.58825 -0.44824,74.71114 -0.59599,88.0689 -0.97835,88.45629 -0.24771,0.25097 -1.2839,0.89897 -2.30265,1.44 -1.35143,0.71773 -1.88152,1.19059 -1.96044,1.74877 -0.0899,0.63577 -0.009,0.72294 0.48,0.51596 0.32349,-0.13696 1.14278,-0.40688 1.82066,-0.5998 1.12579,-0.32042 1.28509,-0.28583 1.84,0.39945 0.33412,0.41264 0.60872,1.13027 0.6102,1.59479 0.002,0.46451 0.34904,2.86054 0.77234,5.32454 1.78361,10.38234 1.93732,16.10307 0.5013,18.65811 -0.4148,0.73805 -0.84415,1.34189 -0.9541,1.34189 -0.10996,0 -0.47944,0.21142 -0.82108,0.46982 -0.54837,0.41476 1.64762,0.46983 18.73884,0.46983 17.09122,0 19.28721,-0.0551 18.73884,-0.46983 z m 169.03073,-0.49987 c -0.72333,-0.9816 -0.72909,-1.06966 -0.67488,-10.32 0.0301,-5.13145 0.27232,-12.77949 0.5383,-16.99558 0.26602,-4.2161 0.4129,-7.7801 0.32643,-7.92 -0.0865,-0.1399 -0.49107,-0.25437 -0.89913,-0.25437 -0.40807,0 -0.91645,-0.21027 -1.12976,-0.46729 -0.30717,-0.37012 0.38742,-8.47293 3.33977,-38.96 l 3.72762,-38.49271 1.74534,-43.84 c 0.95997,-24.112 1.70743,-44.95162 1.66106,-46.31027 l -0.0843,-2.47027 -15.72426,39.91738 -15.72425,39.91737 -11.72298,45.1129 c -6.44761,24.81209 -11.86758,45.45219 -12.04435,45.86688 -0.27683,0.64944 -0.47216,0.72572 -1.40851,0.55004 l -1.08711,-0.20393 -0.19072,1.68995 c -0.319,2.82653 -1.13782,13.33059 -1.13782,14.59635 0,1.15763 0.079,1.23642 3.10858,3.1007 3.68195,2.26573 9.70851,6.60714 12.29692,8.8585 1.01476,0.88259 2.37508,2.37437 3.02295,3.31507 1.03888,1.50839 1.15353,1.86323 0.97097,3.00483 l -0.20697,1.2945 h 16.01334 16.01338 z m 5.43616,0.76141 c -0.48083,-0.073 -1.34483,-0.0745 -1.92,-0.003 -0.57514,0.0712 -0.18173,0.13094 0.87427,0.13274 1.056,0.003 1.52659,-0.0565 1.04573,-0.12948 z M 232.16,474.23999 c -0.10877,-0.176 -0.34177,-0.32 -0.51777,-0.32 -0.176,0 -0.231,0.144 -0.12223,0.32 0.10877,0.176 0.34177,0.32 0.51777,0.32 0.176,0 0.231,-0.144 0.12223,-0.32 z m -63.68,-3.52 c -0.352,-0.15126 -0.928,-0.27501 -1.28,-0.27501 h -0.64 l 0.64,0.27501 c 0.352,0.15126 0.928,0.27501 1.28,0.27501 h 0.64 z M 148.33548,276.54881 c -0.40051,-0.40051 -0.46976,0.25333 -0.24902,2.3514 l 0.23354,2.21978 0.0955,-2.19784 c 0.0525,-1.20882 0.0165,-2.27682 -0.08,-2.37334 z M 228.63793,188.88 c -0.1268,-0.308 -0.303,-0.812 -0.39156,-1.12 -0.25615,-0.89089 -0.72637,-0.64921 -0.72637,0.37333 0,0.84589 0.30575,1.21061 1.07424,1.2814 0.15083,0.0139 0.17049,-0.22673 0.0437,-0.53473 z m 331.68444,42.96286 C 559.79955,231.21289 559.9767,10.455293 560.50045,9.9315422 560.72931,9.7026901 629.5775,9.6244661 782.09622,9.6797694 L 1003.36,9.7599998 V 120.8 231.84 l -22.4,0.19366 c -12.32,0.10652 -111.91437,0.21452 -221.32083,0.24 -175.93533,0.041 -198.96656,-0.009 -199.3168,-0.4308 z M 1000.48,120.8 V 12.64 L 782.09622,12.55977 c -120.11107,-0.04413 -218.47251,0.02787 -218.58099,0.16 -0.10851,0.132129 -0.13603,48.804118 -0.0612,108.15997 l 0.13606,107.91975 200.04496,0.0818 c 110.02471,0.045 208.32493,0.0811 218.44493,0.0803 l 18.40002,-0.002 v -108.16 z m -253.76,88.17423 c -6.70611,-1.45753 -11.72592,-5.93939 -13.99389,-12.49423 -0.9583,-2.76964 -1.02032,-8.23054 -0.12358,-10.88 2.06211,-6.09262 6.29939,-10.32706 12.35747,-12.34927 2.14637,-0.71647 7.31853,-0.81363 9.92,-0.18635 1.51763,0.36594 2.02266,0.35492 3.66723,-0.08 5.83063,-1.54195 12.63056,0.41135 17.14381,4.92458 4.50294,4.50295 6.44534,11.23817 4.94416,17.1438 -2.53731,9.98173 -12.4983,16.13726 -22.18314,13.70839 -1.6759,-0.4203 -2.28755,-0.44775 -3.22044,-0.14452 -1.50087,0.48783 -6.8738,0.71357 -8.51162,0.3576 z m -15.20554,-43.3809 c -0.31804,-0.38322 -0.36688,-2.3353 -0.2222,-8.88225 0.25968,-11.75142 1.07632,-17.65802 2.95363,-21.36271 1.77766,-3.50805 6.51264,-8.00403 16.20528,-15.38734 5.84432,-4.45189 8.76022,-7.43283 10.31955,-10.54974 1.49946,-2.99725 1.88893,-5.14882 1.73146,-9.565292 -0.11866,-3.328387 -0.23226,-3.910982 -1.14144,-5.853853 -1.28909,-2.754748 -3.72778,-5.336358 -6.30141,-6.670719 l -2.00813,-1.041156 -1.8856,0.916503 c -2.2327,1.085213 -5.6904,4.415584 -6.9487,6.692841 -2.08855,3.779805 -4.61712,12.208546 -5.337,17.790386 -0.46137,3.57733 -0.55628,3.84081 -1.38147,3.83551 -0.38413,-0.003 -3.65043,-0.79729 -7.25843,-1.76625 -5.78582,-1.55386 -8.25741,-2.00691 -20.94323,-3.83896 -9.00544,-1.30055 -14.48051,-2.22546 -14.64343,-2.47375 -0.46572,-0.70992 0.81095,-7.60421 2.48548,-13.42196 4.37779,-15.209622 13.23177,-26.162927 26.57152,-32.871798 5.45235,-2.742115 12.19894,-4.691388 18.84652,-5.445257 3.73636,-0.423722 22.83924,-0.424579 26.56314,-0.0013 18.78682,2.135965 34.78518,12.858809 41.17875,27.599939 4.1865,9.652422 4.5833,21.437876 1.05264,31.263716 -3.55174,9.88442 -10.59302,18.18899 -21.98505,25.9294 -5.68253,3.86105 -10.04628,7.25405 -11.26442,8.75862 -2.22173,2.74412 -2.64643,4.291 -3.17162,11.55198 l -0.3703,5.12 -21.31894,0.0823 c -18.84176,0.0727 -21.36631,0.0252 -21.7266,-0.40892 z"
       id="path6163"
       inkscape:connector-curvature="0" />
    <path
       style="fill:#fcb5b6;fill-opacity:1;stroke-width:0.31999999"
       d="m 14.72,503.35999 c 0,-0.63766 0.213333,-0.64 58.668093,-0.64 68.055117,0 80.373007,-0.18742 72.371907,-1.10125 -5.46082,-0.62368 -9.99471,-2.30678 -10.89294,-4.04377 -2.25149,-4.35392 7.83254,-13.92861 25.4107,-24.12724 4.0129,-2.32822 4.35963,-2.468 5.6,-2.2576 2.42736,0.41175 2.89673,0.36957 3.02494,-0.2718 0.15999,-0.80032 -0.34884,-1.06836 -2.5027,-1.31834 -0.99093,-0.11501 -1.98361,-0.32154 -2.20596,-0.45894 -0.28244,-0.17456 -0.4918,-1.9752 -0.69477,-5.97546 -1.90735,-37.59094 -4.5828,-67.37827 -7.9728,-88.7656 -2.8765,-18.14768 -5.0135,-48.91878 -6.2855,-90.50593 -0.16949,-5.54149 -0.32117,-7.24855 -0.67557,-7.60295 -1.20067,-1.20068 -1.28639,0.32209 -0.45745,8.12691 0.37926,3.57091 0.44969,5.30346 0.22313,5.48871 -0.1821,0.14888 -0.94308,0.43432 -1.69108,0.63431 -0.748,0.19999 -1.36,0.54481 -1.36,0.76627 0,0.22146 0.2848,1.70757 0.6329,3.30247 1.6565,7.58986 2.16554,16.25212 1.16775,19.87175 -0.98467,3.57204 -2.67733,5.19846 -5.4102,5.19846 -2.58984,0 -4.2501,-1.3665 -6.10112,-5.02161 -1.88706,-3.72628 -3.72915,-12.52513 -3.72927,-17.81308 -6e-5,-2.77754 -0.0146,-2.8312 -0.72006,-2.66184 -2.69965,0.64807 -3.08537,0.63021 -3.25113,-0.15055 -0.0879,-0.4141 -0.60756,-5.36092 -1.15477,-10.99292 -2.54446,-26.18834 -6.2911,-61.37793 -7.21434,-67.75914 -0.42391,-2.92997 -0.44549,-4.46971 -0.14576,-10.4 0.43784,-8.6629 1.59586,-23.67184 3.06775,-39.76085 0.61989,-6.776 1.24362,-14.14767 1.38605,-16.38147 0.22314,-3.49966 0.38438,-4.31781 1.1656,-5.91456 1.94798,-3.98154 8.09273,-9.10181 20.12315,-16.76812 4.5298,-2.88658 7.22185,-4.82671 8.32,-5.99615 1.67873,-1.78767 5.06421,-4.49735 8.25935,-6.61061 1.4389,-0.95168 1.93173,-1.13473 2.27903,-0.84649 0.5405,0.44857 0.90832,-0.35772 1.63431,-3.58246 0.69453,-3.08495 0.65213,-3.3344 -0.90417,-5.32023 -1.75476,-2.23906 -3.17463,-4.802261 -3.88957,-7.021592 -0.42586,-1.321968 -0.97923,-2.120336 -2.38355,-3.438809 -5.02549,-4.718272 -6.06097,-12.4372 -2.54564,-18.976336 0.51353,-0.955254 0.93369,-1.895968 0.93369,-2.090474 0,-0.194502 -0.52728,-1.346627 -1.17172,-2.560272 -0.94524,-1.780099 -1.20007,-2.648233 -1.31835,-4.49127 -0.15699,-2.446214 0.20721,-3.603984 1.5024,-4.776115 0.65443,-0.592256 0.6926,-0.593274 1.10486,-0.02947 0.39502,0.540214 0.68439,0.35401 3.86131,-2.484637 7.71521,-6.893724 13.89379,-9.7647 18.51191,-8.601846 1.24172,0.312669 1.8016,0.242093 4.73817,-0.597264 1.83154,-0.523501 3.44194,-0.951824 3.57866,-0.951824 0.13673,0 0.38547,0.36 0.55276,0.8 0.36668,0.964426 0.5054,0.974566 2.28506,0.167027 2.07251,-0.940425 2.28937,-0.872973 2.03494,0.632973 l -0.21626,1.28 h 2.72925 c 2.82007,0 3.58914,0.320992 2.45943,1.026509 -1.21081,0.75616 -0.66489,1.071437 2.51337,1.451517 3.7902,0.453257 6.16501,1.29551 7.61475,2.700649 2.26922,2.199418 2.00711,5.032413 -0.86257,9.322938 -1.7162,2.565942 -1.84971,3.052479 -1.13863,4.149644 0.25263,0.389808 0.82863,1.814131 1.28,3.165165 1.28422,3.843968 1.05834,6.803177 -0.69997,9.169997 -0.7564,1.018166 -0.77527,1.152675 -0.41718,2.972809 0.92053,4.678995 0.15443,10.67063 -1.90207,14.876013 -2.00748,4.105098 -6.00634,8.243698 -10.01481,10.364758 -1.66301,0.87997 -1.98402,1.45365 -1.6901,3.02039 0.15601,0.83161 0.73033,1.45894 2.81505,3.07489 3.03018,2.34882 4.11686,2.78007 20.68579,8.2092 7.22214,2.36648 10.80512,3.69976 11.84,4.40585 1.83007,1.24863 3.40299,3.51404 4.08958,5.89001 0.28602,0.98981 4.30136,12.81728 8.92296,26.28326 9.08341,26.46636 9.07104,26.42154 9.76146,35.3564 0.65169,8.43362 -0.50867,14.74377 -3.08366,16.76926 -2.17295,1.70924 -9.20466,3.13115 -16.83197,3.40365 -2.51593,0.0899 -4.61843,0.29179 -4.67222,0.44867 -0.0538,0.15687 0.84292,5.2292 1.99269,11.27182 2.6332,13.83882 4.51225,24.62019 5.13914,29.48672 0.50377,3.91072 0.44227,4.4016 -0.71819,5.73264 -0.34,0.38997 -0.42254,0.90829 -0.28027,1.76 2.47523,14.81822 4.85388,35.357 8.53393,73.68723 2.43299,25.34125 2.98902,30.30695 3.69064,32.96 1.37534,5.20067 2.20122,10.75411 4.1164,27.68 2.06034,18.20883 6.90346,67.21517 6.90346,69.85446 0,0.66964 -0.18,1.40525 -0.4,1.63469 -0.32092,0.33466 -0.30511,0.47504 0.08,0.71005 0.264,0.16109 2.82133,1.69418 5.68295,3.40685 14.78958,8.85152 23.39968,16.68093 23.53344,21.39958 0.0675,2.38311 -3.15335,4.09469 -9.53639,5.06768 -1.76,0.26829 -3.704,0.58672 -4.32,0.70765 -1.08864,0.2137 -1.07073,0.22624 0.64,0.44781 2.37272,0.30729 73.86675,0.29225 74.88,-0.0157 l 0.8,-0.2432 -0.96,-0.39379 c -0.528,-0.21661 -4.344,-1.2577 -8.48,-2.31354 -4.136,-1.05584 -7.97792,-2.20035 -8.53763,-2.54336 -2.84794,-1.74534 -4.16013,-4.75098 -3.60189,-8.2503 0.55437,-3.47514 1.83472,-9.33328 3.85293,-17.6288 1.04905,-4.312 1.86669,-8.12397 1.81699,-8.47101 -0.0619,-0.4321 -0.49392,-0.74333 -1.3704,-0.9873 -0.86154,-0.23977 -1.31024,-0.55836 -1.37248,-0.97443 -0.0509,-0.34 0.9297,-7.23974 2.17907,-15.33273 1.24935,-8.093 2.48813,-16.65853 2.75283,-19.03453 1.556,-13.96707 6.52404,-33.70634 14.87296,-59.09399 l 2.5434,-7.73395 8.79212,-60.90089 c 4.83565,-33.49558 8.7921,-61.01129 8.7921,-61.14612 0,-0.88615 1.05856,0.39504 4.16,5.03486 1.94115,2.904 3.74096,5.28 3.99955,5.28 0.25863,0 3.96451,-1.67371 8.23533,-3.71936 12.93501,-6.19563 10.93891,-5.55996 17.47494,-5.56499 18.40349,-0.0142 31.91719,-1.7567 36.34436,-4.68645 1.54432,-1.022 1.60483,-0.96091 3.06774,3.09615 0.56637,1.57067 1.20211,2.99881 1.41277,3.17364 0.2544,0.21113 2.17961,0.18294 5.73309,-0.0839 2.94252,-0.221 5.49654,-0.31128 5.67558,-0.20062 0.35072,0.21676 1.87667,9.00712 1.88912,10.88236 0.0112,1.69204 -2.0321,9.6877 -3.70253,14.48834 -0.80665,2.31817 -1.66368,4.79085 -1.90451,5.49485 -0.24086,0.704 -0.73894,4.34655 -1.10691,8.09455 -1.12784,11.48848 -1.95267,16.02575 -9.90983,54.51397 l -7.69734,37.23148 -6.80579,48.96 -6.80583,48.96 -1.35772,0.0345 c -0.74672,0.0189 -1.45197,0.12876 -1.56717,0.24396 -0.38519,0.38522 0.79491,14.35136 1.24777,14.76704 0.22957,0.21069 1.71338,0.8936 3.29738,1.5176 8.54464,3.36599 15.52918,7.06423 18.276,9.6769 2.24147,2.13203 2.40227,2.78653 1.00787,4.10163 -1.13405,1.06954 -4.98144,2.58967 -7.53097,2.97552 -0.75191,0.11379 -1.42999,0.30871 -1.50685,0.43309 -0.28471,0.46064 27.06051,0.6489 94.31395,0.64931 68.82653,0 69.04,0.003 69.04,0.64045 0,0.63952 -0.21334,0.64 -289.12,0.64 -288.906667,0 -289.12,0 -289.12,-0.64 z m 222.74976,-0.86006 c 5.10358,-0.28285 3.77411,-0.6217 -3.66504,-0.93408 -5.06933,-0.21287 -5.45078,-0.27325 -6.31396,-0.99956 -1.54425,-1.29942 -2.08306,-4.62825 -1.59372,-9.8463 0.49764,-5.30637 2.29601,-15.93699 2.78543,-16.46534 0.37551,-0.40538 0.61541,-0.37578 1.86175,0.22976 0.89733,0.43593 1.50558,0.57388 1.63159,0.37001 0.48415,-0.78339 -0.19835,-1.16461 -2.4614,-1.37494 -3.39235,-0.3153 -4.43973,-0.92554 -5.28545,-3.07949 -3.42159,-8.71443 -6.42148,-38.9336 -8.91057,-89.76 l -0.4858,-9.92 -11.29396,-39.81923 c -6.21167,-21.90056 -11.466,-39.87656 -11.67629,-39.94665 -0.28626,-0.0954 -0.38626,1.2664 -0.39795,5.41922 -0.0985,34.99508 -1.22743,173.70797 -1.41626,174.01351 -0.13753,0.22253 -1.01614,0.74339 -1.95246,1.15747 -1.4793,0.65424 -1.7297,0.89843 -1.91075,1.86352 -0.29344,1.56416 0.008,1.89523 1.17449,1.29178 0.52969,-0.27392 1.34505,-0.45338 1.81189,-0.39882 0.84487,0.0987 0.85362,0.12813 1.88835,6.3392 1.43435,8.60979 1.83159,13.23181 1.38475,16.11181 -0.65895,4.24704 -1.15115,4.54976 -7.83252,4.81763 -2.80946,0.11264 -5.68946,0.30957 -6.4,0.43766 -1.13682,0.20493 -0.96542,0.25456 1.42812,0.41328 4.03404,0.26752 53.01832,0.33517 57.62976,0.0796 z m 175.9473,0.006 c 1.83756,-0.14301 2.48265,-0.28922 2.02428,-0.45879 -0.99436,-0.36784 -14.58608,-0.99894 -16.22396,-0.75334 -1.35162,0.20269 -1.43037,0.16864 -1.99232,-0.86154 -0.51556,-0.94518 -0.57936,-1.81539 -0.537,-7.32691 0.0266,-3.43987 0.29546,-10.88765 0.59786,-16.55059 0.30237,-5.66295 0.47046,-10.50291 0.37354,-10.75549 -0.0969,-0.25257 -0.61796,-0.55625 -1.15783,-0.67485 -0.87949,-0.19315 -0.98163,-0.33862 -0.98163,-1.39801 0,-0.65031 1.64765,-18.24288 3.66141,-39.09456 l 3.66144,-37.91216 1.83008,-46.64182 c 1.00656,-25.65299 1.73494,-46.73699 1.61859,-46.85332 -0.11632,-0.11634 -0.28045,-0.14261 -0.36467,-0.0584 -0.0842,0.0842 -7.36016,18.43223 -16.16871,40.77333 l -16.01555,40.62009 -11.68425,44.96 c -6.42634,24.728 -11.81517,45.27488 -11.9752,45.65971 -0.21367,0.51389 -0.61392,0.72637 -1.50704,0.8 l -1.2161,0.10029 -0.72957,8.62432 c -0.40125,4.74336 -0.66982,8.77536 -0.5968,8.96 0.073,0.18461 1.96045,1.48768 4.19434,2.89568 7.98406,5.03232 13.74579,9.83939 14.90989,12.43949 0.57606,1.28665 0.57577,1.34624 -0.0112,2.34118 -0.55463,0.94003 -0.55975,1.03219 -0.0645,1.16301 0.87052,0.22995 45.40304,0.23232 48.35494,0.003 z M 201.20774,228.4 c 0.78971,-0.96867 1.40694,-21.95822 0.76854,-26.13505 l -0.21628,-1.41506 -2.24,-0.69066 c -4.38814,-1.35301 -6.93916,-3.16439 -7.98378,-5.66896 -1.325,-3.17678 0.34257,-7.57847 3.49793,-9.23309 1.16346,-0.6101 1.44901,-0.91478 1.32821,-1.41718 -0.0846,-0.352 -0.44648,-1.72 -0.80409,-3.04 -1.48511,-5.48184 -1.72764,-9.02516 -1.93836,-28.32 -0.10956,-10.032 -0.31827,-18.492 -0.46379,-18.8 -0.14553,-0.308 -0.38812,-0.56 -0.5391,-0.56 -0.57566,0 -1.0009,-1.44453 -1.27353,-4.32621 -0.15546,-1.64321 -0.45169,-3.65894 -0.65828,-4.47939 -0.32323,-1.28365 -0.46975,-1.46804 -1.05042,-1.32193 -1.86061,0.4682 -8.51596,2.84159 -9.6573,3.44394 l -1.30251,0.68741 -7.17749,-5.37468 -7.17749,-5.37468 -0.24027,1.89277 c -0.13215,1.04102 -0.16242,5.70877 -0.0673,10.37277 0.33441,16.3916 1.12754,26.52809 2.30639,29.47652 0.99207,2.48127 0.71245,33.12802 -0.57286,62.78556 -0.17405,4.01615 -0.23361,7.43615 -0.13234,7.6 0.30305,0.49035 35.19268,0.39028 35.59409,-0.10208 z m 24.36036,-15.36 c -0.0175,-0.572 -0.13614,-1.4 -0.26354,-1.84 -0.22999,-0.7943 -0.23331,-0.79497 -0.46523,-0.094 -0.27577,0.83352 0.067,2.97399 0.47628,2.97399 0.15642,0 0.27003,-0.468 0.25249,-1.04 z m 3.8719,-23.61064 c 0,-0.55184 -1.59117,-3.50936 -1.88807,-3.50936 -0.67427,0 -0.9264,3.36398 -0.27193,3.62807 0.7317,0.29524 2.16,0.21675 2.16,-0.11871 z M 561.024,231.296 c -0.29677,-0.29678 -0.38394,-20.04952 -0.38378,-86.96 1.3e-4,-47.616802 0.0958,-97.268001 0.21264,-110.336001 L 561.06525,10.24 H 781.97261 1002.88 V 120.74725 231.2545 l -28.85293,0.21275 c -15.86912,0.11701 -115.20032,0.21275 -220.736,0.21275 -148.81571,0 -191.96925,-0.0862 -192.26707,-0.384 z m 439.7532,-2.03886 c 0.4551,-0.45516 0.5028,-10.74355 0.5028,-108.45714 0,-97.713593 -0.048,-108.001988 -0.5028,-108.457143 C 1000.321,11.886697 979.99722,11.84 781.92,11.84 c -206.73632,0 -218.38381,0.02951 -218.90899,0.554709 -0.51971,0.519709 -0.54135,1.946457 -0.34285,22.612814 0.11651,12.131958 0.21184,60.842222 0.21184,108.245037 v 86.18693 l 200.56,0.0805 c 110.308,0.0443 208.72173,0.11639 218.69715,0.16025 16.13088,0.0709 18.19275,0.0241 18.64005,-0.42311 z M 746.0071,208.1802 c -6.32108,-1.53167 -11.86841,-7.23894 -13.17606,-13.55595 -1.23597,-5.97064 0.55424,-11.91359 4.89693,-16.25628 4.48681,-4.48681 10.59181,-6.21927 16.77737,-4.76105 1.79908,0.42413 2.23322,0.4236 3.88618,-0.005 3.94358,-1.02188 8.75056,-0.44867 12.62288,1.50522 2.55965,1.29153 6.18666,4.91854 7.47818,7.47817 2.67481,5.30108 2.66377,11.45996 -0.0298,16.61441 -1.29629,2.48064 -4.94215,6.12648 -7.42279,7.42278 -3.76637,1.96819 -8.67699,2.56414 -12.64848,1.53502 -1.65296,-0.42832 -2.0871,-0.42885 -3.88617,-0.005 -2.42791,0.57237 -6.19844,0.5844 -8.49824,0.0271 z m -14.06297,-43.25038 c -0.10765,-0.28059 -0.10989,-4.34859 -0.005,-9.04 0.27369,-12.23466 1.15811,-17.71287 3.44029,-21.30977 2.06572,-3.25578 6.60793,-7.44187 15.04076,-13.86158 8.03028,-6.11324 11.10852,-9.82869 12.28778,-14.83147 0.57216,-2.42728 0.63603,-6.937066 0.13187,-9.311251 -0.87677,-4.129092 -3.89683,-7.958144 -7.78733,-9.873443 l -2.09257,-1.030164 -2,0.995031 c -5.34823,2.660835 -8.60397,7.773484 -11.15152,17.511817 -0.78807,3.01244 -1.88035,8.97645 -1.88659,10.30101 -0.003,0.63652 -0.76676,0.50366 -7.86087,-1.36737 -5.80579,-1.53126 -8.49654,-2.02388 -20.14102,-3.68744 -7.392,-1.05605 -13.77671,-1.99466 -14.18823,-2.08582 -0.70371,-0.15587 -0.73523,-0.26489 -0.53033,-1.83255 0.4663,-3.5679 1.87686,-9.537126 3.21561,-13.608182 2.78983,-8.483638 6.69117,-14.942588 12.61197,-20.879894 5.7545,-5.770515 11.80419,-9.484176 19.74327,-12.11952 7.94905,-2.638671 11.39606,-2.995667 27.1734,-2.814268 11.94794,0.137369 12.61133,0.177206 16.31655,0.979792 18.34278,3.973232 32.22278,15.305971 36.90873,30.13525 1.53476,4.856848 1.79136,6.838807 1.76093,13.600002 -0.0269,5.93062 -0.0782,6.43039 -1.03805,10.08 -1.31321,4.99301 -4.03504,10.5656 -7.23616,14.81511 -2.84985,3.78325 -8.65321,9.42525 -12.42601,12.08055 -1.48816,1.04739 -4.52957,3.18471 -6.75866,4.7496 -4.97603,3.49335 -8.10057,6.3438 -9.23155,8.4218 -0.96256,1.76854 -1.83994,6.1333 -1.84426,9.17485 0,1.07695 -0.0936,2.71409 -0.20457,3.63809 l -0.20179,1.68 H 753.0655 c -18.85529,0 -20.94483,-0.0505 -21.12124,-0.51018 z M 418.72,152.59787 c -7.6361,-0.95849 -17.06458,-4.68172 -20.11555,-7.94345 -1.58535,-1.69489 -2.44445,-3.93587 -2.44445,-6.3765 0,-2.04259 -0.51062,-1.33476 -1.11715,1.54857 -0.27507,1.30759 -0.57607,2.45339 -0.6689,2.54621 -0.3159,0.31592 -0.63494,-0.58335 -1.54678,-4.35985 -0.50106,-2.07507 -1.06525,-3.96671 -1.25383,-4.20366 -0.48051,-0.60378 -12.39801,-6.53119 -12.64163,-6.28756 -0.10963,0.10963 0.43869,1.45012 1.2185,2.97885 1.02073,2.00108 2.07203,3.449 3.75379,5.16999 1.2848,1.31477 2.336,2.4884 2.336,2.60809 0,0.4017 -3.00826,0.93333 -6.93936,1.22637 -4.28752,0.3196 -8.82054,0.0186 -12.02384,-0.79832 -7.21146,-1.83917 -12.85747,-7.68834 -13.81706,-14.31415 l -0.22121,-1.52752 2.11286,-1.96825 c 3.59005,-3.34429 5.61299,-8.557 5.60579,-14.44484 0,-1.26052 -0.28953,-4.87066 -0.64,-8.02253 -0.77558,-6.975373 -0.80793,-10.219238 -0.12224,-12.258138 0.77716,-2.310825 3.14605,-5.677017 6.28554,-8.931676 4.25382,-4.409882 8.1071,-7.01689 13.59712,-9.199373 7.15565,-2.844643 15.63357,-2.996665 18.1111,-0.324755 0.67335,0.726182 0.82183,0.753645 2.42781,0.449075 3.93799,-0.746822 9.17459,1.30729 14.73511,5.780013 4.97564,4.002269 7.54854,7.979318 9.03062,13.9591 0.80547,3.249795 0.96915,10.098685 0.31904,13.347514 -0.70954,3.54569 0.56762,5.69652 5.69872,9.59707 4.76976,3.62587 5.75619,5.5919 5.76381,11.4876 0.003,1.61934 0.20125,3.68582 0.44256,4.59219 0.93507,3.5119 3.20829,6.54264 6.47437,8.63193 0.9456,0.60489 1.71926,1.24672 1.71926,1.42629 0,0.39275 -1.96256,1.25384 -2.85773,1.25384 -2.40493,0 -6.73513,-2.93661 -9.78829,-6.6381 -1.74662,-2.11751 -3.90652,-5.93362 -4.61961,-8.1619 -0.2112,-0.66 -0.51408,-1.2 -0.67309,-1.2 -0.5783,0 -0.69968,1.76853 -0.53421,7.78449 0.25373,9.22457 1.42003,12.64875 5.77469,16.95431 1.39002,1.37435 2.42739,2.59835 2.30528,2.72 -0.12211,0.12166 -1.18163,0.21457 -2.35453,0.20646 -3.49235,-0.0241 -5.96253,-1.76075 -8.87683,-6.24068 -1.34054,-2.06071 -1.40342,-2.10806 -3.79523,-2.85817 -1.52064,-0.47689 -2.54503,-0.64984 -2.73338,-0.46148 -0.40243,0.40244 1.49936,5.09044 2.94538,7.26047 0.61373,0.92103 1.78016,2.41093 2.59206,3.3109 0.81194,0.89996 1.38455,1.72796 1.27251,1.84 -0.25628,0.25629 -1.86044,0.20264 -4.73702,-0.15843 z"
       id="path6161"
       inkscape:connector-curvature="0" />
    <path
       style="fill:#03425c;fill-opacity:1;stroke-width:0.31999999"
       d="m 14.72,503.35999 c 0,-0.63766 0.213333,-0.64 58.668093,-0.64 68.055117,0 80.373007,-0.18742 72.371907,-1.10125 -5.46082,-0.62368 -9.99471,-2.30678 -10.89294,-4.04377 -1.85256,-3.58247 4.48722,-10.62727 17.04253,-18.93783 5.74299,-3.80134 12.37781,-7.59715 13.27939,-7.59715 1.10699,0 7.81549,2.3127 11.10824,3.8295 2.26588,1.04378 3.33703,1.34372 5.34807,1.49764 2.45756,0.18809 2.56351,0.1656 4.66216,-0.9898 1.37312,-0.75596 2.46569,-1.14534 3.03005,-1.0798 l 0.88261,0.10246 1.03954,6.24 c 1.43435,8.60979 1.83159,13.23181 1.38475,16.11181 -0.66207,4.2671 -1.13102,4.55001 -8.0044,4.82909 -2.904,0.11788 -5.784,0.32339 -6.4,0.45667 -2.23434,0.48342 6.81723,0.68243 31.04,0.68243 24.2484,0 33.26912,-0.19872 31.04,-0.68384 -0.616,-0.13405 -3.54788,-0.3457 -6.51528,-0.4703 -5.06933,-0.21287 -5.45078,-0.27325 -6.31396,-0.99956 -1.54425,-1.29942 -2.08306,-4.62825 -1.59372,-9.8463 0.51052,-5.44381 2.29528,-15.9368 2.80309,-16.48 0.39587,-0.42346 0.76617,-0.31414 3.14321,0.9279 2.68411,1.40247 2.70394,1.40708 5.15134,1.2002 1.93872,-0.16388 3.1052,-0.50263 5.53109,-1.60631 1.69083,-0.76928 3.61222,-1.57187 4.26977,-1.78358 1.2238,-0.39399 1.9014,-0.97821 1.1346,-0.97821 -0.2352,0 -2.5117,0.30739 -5.05889,0.68307 -3.11773,0.45984 -6.35679,0.69514 -9.91125,0.72 -7.93168,0.0555 -8.20588,-0.17517 -10.03717,-8.44307 -2.79575,-12.62217 -5.27696,-40.87766 -7.40444,-84.32 l -0.4858,-9.92 -11.29396,-39.81923 c -6.21167,-21.90056 -11.466,-39.87656 -11.67629,-39.94665 -0.28626,-0.0954 -0.38626,1.2664 -0.39795,5.41922 -0.009,3.05066 -0.2746,43.37742 -0.59115,89.61501 -0.42949,62.73322 -0.67008,84.18227 -0.94802,84.51715 -0.5375,0.64768 -4.96218,2.44282 -6.1968,2.51412 -0.57663,0.0333 -2.56042,-0.32301 -4.40842,-0.79184 -1.848,-0.4688 -6.07108,-1.34692 -9.38462,-1.95136 -3.31354,-0.60445 -6.09728,-1.17165 -6.18609,-1.26045 -0.0888,-0.0888 -0.29177,-2.72976 -0.45101,-5.86874 -1.90558,-37.563 -4.58251,-67.36425 -7.97181,-88.74723 -2.8765,-18.14768 -5.0135,-48.91878 -6.2855,-90.50593 -0.16949,-5.54149 -0.32117,-7.24855 -0.67557,-7.60295 -1.20067,-1.20068 -1.28639,0.32209 -0.45745,8.12691 0.41564,3.91345 0.46226,5.29432 0.18645,5.52322 -0.52662,0.43706 -14.24349,3.76743 -19.08004,4.63252 -1.06593,0.19066 -1.20178,0.13605 -1.34549,-0.54085 -0.0879,-0.4141 -0.60756,-5.36092 -1.15477,-10.99292 -2.54446,-26.18834 -6.2911,-61.37793 -7.21434,-67.75914 -0.42391,-2.92997 -0.44549,-4.46971 -0.14576,-10.4 0.43784,-8.6629 1.59586,-23.67184 3.06775,-39.76085 0.61989,-6.776 1.24362,-14.14767 1.38605,-16.38147 0.22314,-3.49966 0.38438,-4.31781 1.1656,-5.91456 1.94798,-3.98154 8.09273,-9.10181 20.12315,-16.76812 4.5298,-2.88658 7.22185,-4.82671 8.32,-5.99615 2.57754,-2.74482 9.85739,-8.09241 10.34828,-7.60156 0.12934,0.12934 0.25761,5.73117 0.28503,12.44851 0.0717,17.56745 0.90702,29.80131 2.26712,33.20456 0.99405,2.48731 0.71564,33.10277 -0.57099,62.79087 -0.17405,4.01615 -0.23361,7.43615 -0.13234,7.6 0.30305,0.49034 35.19241,0.39028 35.59526,-0.10208 0.57058,-0.6974 1.08796,-10.66431 0.9925,-19.12 l -0.0921,-8.16 0.94536,0.0296 c 0.51994,0.0163 2.88935,0.21666 5.26535,0.44529 4.43851,0.42709 15.54842,0.27037 16.03356,-0.22617 0.29841,-0.30541 -0.42472,-10.64827 -0.7843,-11.21782 -0.86235,-1.36593 -9.95228,-4.81913 -15.40926,-5.85387 -2.48936,-0.47203 -7.90719,-0.58849 -9.9906,-0.21476 -1.26077,0.22616 -1.3802,0.18359 -1.79546,-0.64 -0.62461,-1.2388 -1.42544,-4.75209 -2.02466,-8.88228 -0.40268,-2.77555 -0.53665,-7.17455 -0.63345,-20.8 -0.0675,-9.504 -0.19997,-17.87827 -0.29433,-18.60949 -0.0995,-0.77077 -0.49286,-1.67617 -0.93609,-2.15443 -0.46626,-0.5031 -0.82467,-1.35769 -0.9187,-2.1905 -0.59665,-5.28476 -0.91116,-6.88007 -1.67457,-8.49376 -0.6168,-1.30382 -0.79875,-2.10171 -0.68042,-2.98386 0.20064,-1.49593 1.3738,-3.89005 2.36032,-4.81684 l 0.74328,-0.69828 2.62699,2.03629 c 3.03932,2.3559 4.11606,2.78336 20.69374,8.21536 7.22214,2.36647 10.80512,3.69975 11.84,4.40584 1.83007,1.24864 3.40299,3.51404 4.08958,5.89001 0.28602,0.98982 4.30136,12.81728 8.92296,26.28326 9.08341,26.46637 9.07104,26.42154 9.76146,35.3564 0.65169,8.43363 -0.50867,14.74378 -3.08366,16.76927 -2.17295,1.70924 -9.20466,3.13115 -16.83197,3.40365 -2.51593,0.0899 -4.61843,0.29179 -4.67222,0.44866 -0.0538,0.15688 0.84292,5.2292 1.99269,11.27183 2.6332,13.83882 4.51225,24.62019 5.13914,29.48671 0.50377,3.91073 0.44227,4.4016 -0.71819,5.73264 -0.34,0.38997 -0.42254,0.9083 -0.28027,1.76 2.47523,14.81822 4.85388,35.35701 8.53393,73.68724 2.43299,25.34125 2.98902,30.30694 3.69064,32.96 1.37534,5.20067 2.20122,10.75411 4.1164,27.68 2.06034,18.20883 6.90346,67.21517 6.90346,69.85446 0,0.66963 -0.18,1.40525 -0.4,1.63469 -0.32092,0.33466 -0.30511,0.47504 0.08,0.71005 0.264,0.16109 2.82133,1.69417 5.68295,3.40685 14.78958,8.85152 23.39968,16.68092 23.53344,21.39958 0.0675,2.3831 -3.15335,4.09469 -9.53639,5.06768 -1.76,0.26829 -3.704,0.58672 -4.32,0.70765 -1.08864,0.21369 -1.07073,0.22624 0.64,0.44781 2.37272,0.30729 73.86675,0.29225 74.88,-0.0157 l 0.8,-0.2432 -0.96,-0.3938 c -0.528,-0.2166 -4.344,-1.25769 -8.48,-2.31353 -4.136,-1.05584 -7.97792,-2.20035 -8.53763,-2.54336 -2.84794,-1.74535 -4.16013,-4.75098 -3.60189,-8.25031 0.55437,-3.47513 1.83472,-9.33328 3.85293,-17.6288 1.04905,-4.312 1.86669,-8.12396 1.81699,-8.471 -0.0619,-0.4321 -0.49392,-0.74333 -1.3704,-0.9873 -0.86154,-0.23978 -1.31024,-0.55837 -1.37248,-0.97443 -0.0509,-0.34 0.9297,-7.23975 2.17907,-15.33274 1.24935,-8.09299 2.48813,-16.65853 2.75283,-19.03453 1.556,-13.96707 6.52404,-33.70633 14.87296,-59.09398 l 2.5434,-7.73395 8.79212,-60.90089 c 4.83565,-33.49558 8.7921,-61.01129 8.7921,-61.14612 0,-0.88615 1.05856,0.39504 4.16,5.03486 1.97821,2.95942 3.74294,5.28 4.01533,5.28 0.26726,0 1.19638,-0.36 2.06467,-0.8 0.86829,-0.44 1.87264,-0.8 2.23187,-0.8 0.35923,0 6.02541,3.81034 12.59155,8.46743 l 11.9384,8.46743 1.20788,2.81257 c 3.14064,7.31317 7.80329,15.01434 11.06544,18.2765 3.17548,3.17549 5.87596,3.98523 8.20387,2.45993 1.05225,-0.68946 2.02502,-2.84772 2.03395,-4.51268 0.0214,-4.00851 -3.54154,-12.06448 -8.90381,-20.13119 -3.04857,-4.58607 -3.59853,-5.20636 -12.33997,-13.91789 -5.03206,-5.01484 -9.14918,-9.22684 -9.14918,-9.36 0,-0.13316 2.34,-0.24406 5.2,-0.24645 17.91085,-0.015 31.51299,-1.78714 35.87536,-4.67402 0.76067,-0.50339 1.3505,-0.70378 1.53331,-0.52095 0.16343,0.16341 0.83239,1.70909 1.48659,3.43483 1.12682,2.97253 1.44516,3.42735 2.65392,3.79185 0.40519,0.12219 0.59191,1.03712 0.91424,4.48015 l 0.40506,4.32659 -1.60618,4.10295 c -2.40243,6.13691 -3.38681,10.37437 -3.4063,14.66294 -0.0122,2.65938 0.1255,3.88666 0.56269,5.01966 0.66147,1.71415 2.75181,3.78093 3.82224,3.77915 1.11629,-0.002 2.71043,-1.13436 3.82739,-2.719 0.5593,-0.79344 1.12269,-1.33399 1.25206,-1.20121 0.29303,0.30077 -0.74998,10.6214 -1.79097,17.7219 -0.42903,2.92627 -4.24458,22.07827 -8.47904,42.55998 l -7.69901,37.23952 -6.80579,48.96 -6.80583,48.96 -1.35772,0.0345 c -0.74672,0.0189 -1.45197,0.12876 -1.56717,0.24396 -0.38519,0.38522 0.79491,14.35136 1.24777,14.76704 0.22957,0.21069 1.71338,0.8936 3.29738,1.5176 8.54464,3.36599 15.52918,7.06423 18.276,9.6769 2.24147,2.13203 2.40227,2.78653 1.00787,4.10163 -1.13405,1.06954 -4.98144,2.58967 -7.53097,2.97552 -0.75191,0.11379 -1.42999,0.30871 -1.50685,0.43309 -0.28471,0.46064 27.06051,0.6489 94.31395,0.64931 68.82653,0 69.04,0.003 69.04,0.64045 0,0.63952 -0.21334,0.64 -289.12,0.64 -288.906667,0 -289.12,0 -289.12,-0.64 z m 398.69706,-0.85376 c 1.83756,-0.14301 2.48265,-0.28922 2.02428,-0.45878 -0.99436,-0.36784 -14.58608,-0.99895 -16.22396,-0.75335 -1.35162,0.20269 -1.43037,0.16864 -1.99232,-0.86153 -0.51556,-0.94519 -0.57936,-1.8154 -0.537,-7.32692 0.0266,-3.43987 0.29546,-10.88764 0.59786,-16.55059 0.30237,-5.66294 0.47046,-10.50291 0.37354,-10.75548 -0.0969,-0.25258 -0.61796,-0.55626 -1.15783,-0.67485 -0.87949,-0.19315 -0.98163,-0.33863 -0.98163,-1.39802 0,-0.6503 1.64765,-18.24288 3.66141,-39.09456 l 3.66144,-37.91216 1.83008,-46.64182 c 1.00656,-25.65298 1.73494,-46.73698 1.61859,-46.85332 -0.11632,-0.11634 -0.28045,-0.14261 -0.36467,-0.0584 -0.0842,0.0842 -7.36016,18.43224 -16.16871,40.77333 l -16.01555,40.62019 -11.68425,44.96 c -6.42634,24.728 -11.81517,45.27488 -11.9752,45.65971 -0.21367,0.51389 -0.61392,0.72637 -1.50704,0.8 l -1.2161,0.10029 -0.72957,8.62432 c -0.40125,4.74336 -0.66982,8.77536 -0.5968,8.96 0.073,0.18461 1.96045,1.48768 4.19434,2.89568 7.98406,5.03232 13.74579,9.83939 14.90989,12.43949 0.57606,1.28665 0.57577,1.34624 -0.0112,2.34118 -0.55463,0.94003 -0.55975,1.03219 -0.0645,1.16301 0.87052,0.22995 45.40304,0.23232 48.35494,0.003 z M 225.5681,213.04 c -0.0175,-0.572 -0.13614,-1.4 -0.26354,-1.84 -0.22999,-0.7943 -0.23331,-0.79497 -0.46523,-0.094 -0.27577,0.83352 0.067,2.97399 0.47628,2.97399 0.15642,0 0.27003,-0.468 0.25249,-1.04 z m 3.8719,-23.61064 c 0,-0.55184 -1.59117,-3.50936 -1.88807,-3.50936 -0.67427,0 -0.9264,3.36398 -0.27193,3.62807 0.7317,0.29524 2.16,0.21675 2.16,-0.11871 z M 561.024,231.296 c -0.29677,-0.29678 -0.38394,-20.04952 -0.38378,-86.96 1.3e-4,-47.616802 0.0958,-97.268001 0.21264,-110.336001 L 561.06525,10.24 H 781.97261 1002.88 V 120.74725 231.2545 l -28.85293,0.21275 c -15.86912,0.11701 -115.20032,0.21275 -220.736,0.21275 -148.81571,0 -191.96925,-0.0862 -192.26707,-0.384 z m 439.7532,-2.03886 c 0.4551,-0.45516 0.5028,-10.74355 0.5028,-108.45714 0,-97.713593 -0.048,-108.001988 -0.5028,-108.457143 C 1000.321,11.886697 979.99722,11.84 781.92,11.84 c -206.73632,0 -218.38381,0.02951 -218.90899,0.554709 -0.51971,0.519709 -0.54135,1.946457 -0.34285,22.612814 0.11651,12.131958 0.21184,60.842222 0.21184,108.245037 v 86.18693 l 200.56,0.0805 c 110.308,0.0443 208.72173,0.11639 218.69715,0.16025 16.13088,0.0709 18.19275,0.0241 18.64005,-0.42311 z M 746.0071,208.1802 c -6.32108,-1.53167 -11.86841,-7.23894 -13.17606,-13.55595 -1.23597,-5.97064 0.55424,-11.91359 4.89693,-16.25628 4.48681,-4.48681 10.59181,-6.21927 16.77737,-4.76105 1.79908,0.42413 2.23322,0.4236 3.88618,-0.005 3.94358,-1.02188 8.75056,-0.44867 12.62288,1.50522 2.55965,1.29153 6.18666,4.91854 7.47818,7.47817 2.67481,5.30108 2.66377,11.45996 -0.0298,16.61441 -1.29629,2.48064 -4.94215,6.12648 -7.42279,7.42278 -3.76637,1.96819 -8.67699,2.56414 -12.64848,1.53502 -1.65296,-0.42832 -2.0871,-0.42885 -3.88617,-0.005 -2.42791,0.57237 -6.19844,0.5844 -8.49824,0.0271 z m -14.06297,-43.25038 c -0.10765,-0.28059 -0.10989,-4.34859 -0.005,-9.04 0.27369,-12.23466 1.15811,-17.71287 3.44029,-21.30977 2.06572,-3.25578 6.60793,-7.44187 15.04076,-13.86158 8.03028,-6.11324 11.10852,-9.82869 12.28778,-14.83147 0.57216,-2.42728 0.63603,-6.937066 0.13187,-9.311251 -0.87677,-4.129092 -3.89683,-7.958144 -7.78733,-9.873443 l -2.09257,-1.030164 -2,0.995031 c -5.34823,2.660835 -8.60397,7.773484 -11.15152,17.511817 -0.78807,3.01244 -1.88035,8.97645 -1.88659,10.30101 -0.003,0.63652 -0.76676,0.50366 -7.86087,-1.36737 -5.80579,-1.53126 -8.49654,-2.02388 -20.14102,-3.68744 -7.392,-1.05605 -13.77671,-1.99466 -14.18823,-2.08582 -0.70371,-0.15587 -0.73523,-0.26489 -0.53033,-1.83255 0.4663,-3.5679 1.87686,-9.537126 3.21561,-13.608182 2.78983,-8.483638 6.69117,-14.942588 12.61197,-20.879894 5.7545,-5.770515 11.80419,-9.484176 19.74327,-12.11952 7.94905,-2.638671 11.39606,-2.995667 27.1734,-2.814268 11.94794,0.137369 12.61133,0.177206 16.31655,0.979792 18.34278,3.973232 32.22278,15.305971 36.90873,30.13525 1.53476,4.856848 1.79136,6.838807 1.76093,13.600002 -0.0269,5.93062 -0.0782,6.43039 -1.03805,10.08 -1.31321,4.99301 -4.03504,10.5656 -7.23616,14.81511 -2.84985,3.78325 -8.65321,9.42525 -12.42601,12.08055 -1.48816,1.04739 -4.52957,3.18471 -6.75866,4.7496 -4.97603,3.49335 -8.10057,6.3438 -9.23155,8.4218 -0.96256,1.76854 -1.83994,6.1333 -1.84426,9.17485 0,1.07695 -0.0936,2.71409 -0.20457,3.63809 l -0.20179,1.68 H 753.0655 c -18.85529,0 -20.94483,-0.0505 -21.12124,-0.51018 z M 418.72,152.59787 c -7.6361,-0.95849 -17.06458,-4.68172 -20.11555,-7.94345 -2.28631,-2.44424 -2.87034,-5.30687 -2.09815,-10.28379 0.32733,-2.10971 0.29018,-2.41696 -0.67827,-5.61006 -1.41283,-4.65838 -0.95654,-5.51318 3.30499,-6.19126 9.57357,-1.5233 16.60599,-8.88329 18.13671,-18.98156 0.41347,-2.72772 0.17718,-5.775118 -0.50032,-6.452625 -1.01306,-1.01306 -8.24666,-3.27562 -13.40941,-4.194266 -4.21827,-0.750589 -13.04198,-0.75649 -17.76,-0.01187 -3.81805,0.602579 -10.83078,2.311808 -11.39034,2.776192 -0.20489,0.170048 -0.45705,0.731747 -0.56035,1.248221 -0.12061,0.603104 -0.52089,1.111296 -1.11888,1.420531 -1.83184,0.94728 -2.4872,4.296617 -1.33664,6.831417 0.48378,1.06587 0.83568,1.40855 1.60432,1.56228 1.25421,0.25084 1.36797,0.48698 2.35687,4.89252 l 0.82153,3.66014 2.11421,2.13052 2.11421,2.13052 -0.66199,3.48934 c -0.36406,1.91913 -0.66217,3.82735 -0.66243,4.24047 0,1.5326 2.61991,5.88983 5.02823,8.35934 1.2822,1.31476 2.33126,2.4884 2.33126,2.60808 0,0.4017 -3.00826,0.93334 -6.93936,1.22637 -4.28752,0.3196 -8.82054,0.0186 -12.02384,-0.79832 -7.21146,-1.83916 -12.85747,-7.68833 -13.81706,-14.31414 l -0.22121,-1.52753 2.11286,-1.96824 c 3.59005,-3.34429 5.61299,-8.55701 5.60579,-14.44485 0,-1.26051 -0.28953,-4.87065 -0.64,-8.022522 -0.77558,-6.975373 -0.80793,-10.219238 -0.12224,-12.258137 0.77716,-2.310826 3.14605,-5.677018 6.28554,-8.931677 4.25382,-4.409881 8.1071,-7.016889 13.59712,-9.199373 7.15565,-2.844643 15.63357,-2.996665 18.1111,-0.324755 0.67335,0.726183 0.82183,0.753645 2.42781,0.449075 3.93799,-0.746822 9.17459,1.30729 14.73511,5.780013 4.97564,4.002269 7.54854,7.979318 9.03062,13.959101 0.80547,3.249795 0.96915,10.098684 0.31904,13.347515 -0.70954,3.54569 0.56762,5.69652 5.69872,9.59707 4.76976,3.62586 5.75619,5.5919 5.76381,11.48759 0.003,1.61934 0.20125,3.68583 0.44256,4.59219 0.93507,3.5119 3.20829,6.54265 6.47437,8.63194 0.9456,0.60488 1.71926,1.24671 1.71926,1.42629 0,0.39275 -1.96256,1.25383 -2.85773,1.25383 -2.40493,0 -6.73513,-2.93661 -9.78829,-6.6381 -1.74662,-2.11751 -3.90652,-5.93361 -4.61961,-8.1619 -0.2112,-0.66 -0.51408,-1.2 -0.67309,-1.2 -0.5783,0 -0.69968,1.76853 -0.53421,7.7845 0.25373,9.22457 1.42003,12.64874 5.77469,16.95431 1.39002,1.37435 2.42739,2.59835 2.30528,2.72 -0.12211,0.12166 -1.18163,0.21456 -2.35453,0.20646 -3.49235,-0.0241 -5.96253,-1.76075 -8.87683,-6.24069 -1.34054,-2.06071 -1.40342,-2.10805 -3.79523,-2.85817 -1.52064,-0.47689 -2.54503,-0.64983 -2.73338,-0.46147 -0.40243,0.40243 1.49936,5.09044 2.94538,7.26046 0.61373,0.92103 1.78016,2.41094 2.59206,3.3109 0.81194,0.89997 1.38455,1.72797 1.27251,1.84 -0.25628,0.2563 -1.86044,0.20265 -4.73702,-0.15842 z M 165.75756,98.396843 c -1.83006,-2.372106 -3.37175,-3.676845 -4.34459,-3.676845 -1.18697,0 -2.4017,-0.732438 -3.88684,-2.343619 -4.24181,-4.601824 -4.9236,-12.041997 -1.65982,-18.113206 0.51353,-0.955254 0.93369,-1.895968 0.93369,-2.090474 0,-0.194502 -0.52728,-1.346627 -1.17172,-2.560272 -0.94524,-1.780099 -1.20007,-2.648233 -1.31835,-4.49127 -0.15699,-2.446214 0.20721,-3.603984 1.5024,-4.776115 0.65443,-0.592256 0.6926,-0.593274 1.10486,-0.02947 0.39502,0.540214 0.68439,0.35401 3.86131,-2.484637 7.71521,-6.893724 13.89379,-9.7647 18.51191,-8.601846 1.24172,0.312669 1.8016,0.242093 4.73817,-0.597264 1.83154,-0.523501 3.44194,-0.951824 3.57866,-0.951824 0.13673,0 0.38547,0.36 0.55276,0.8 0.36668,0.964426 0.5054,0.974566 2.28506,0.167027 2.07251,-0.940425 2.28937,-0.872973 2.03494,0.632973 l -0.21626,1.28 h 2.72925 c 2.82007,0 3.58914,0.320992 2.45943,1.026509 -1.21081,0.75616 -0.66489,1.071437 2.51337,1.451517 3.7902,0.453257 6.16501,1.29551 7.61475,2.700649 2.26922,2.199418 2.00711,5.032413 -0.86257,9.322938 -1.7162,2.565942 -1.84971,3.052479 -1.13863,4.149644 0.89005,1.373319 2.10066,5.613399 2.10066,7.357411 0,2.553568 -1.29026,5.671331 -2.34703,5.671331 -0.21089,0 -0.87715,-0.828 -1.48055,-1.84 -1.37248,-2.301827 -3.97518,-5.087859 -5.45023,-5.83414 -2.0431,-1.033677 -2.96711,-1.065117 -5.50984,-0.187485 -1.30108,0.449072 -3.01352,0.905302 -3.80542,1.013846 -1.64648,0.225674 -4.96183,-0.511203 -6.50076,-1.44487 -1.49821,-0.90897 -2.65545,-1.040128 -5.91712,-0.67064 -4.69289,0.531616 -7.06905,1.866669 -7.06905,3.97176 0,0.435043 0.28699,1.988109 0.63776,3.451257 0.35076,1.463149 0.63876,3.420346 0.64,4.349322 0.002,1.632765 -0.0554,1.742659 -1.72634,3.297875 -2.23112,2.076541 -2.62915,3.009533 -2.12987,4.992352 0.54176,2.151523 0.83263,6.820723 0.42489,6.820723 -0.18073,0 -0.94073,-0.793421 -1.68888,-1.763155 z"
       id="path6159"
       inkscape:connector-curvature="0" />
    <path
       style="fill:#000000;stroke-width:0.31999999"
       d="m 748.16,207.95296 c -6.66554,-0.68196 -12.32893,-5.44002 -14.41776,-12.11296 -0.81712,-2.61038 -0.87389,-7.0625 -0.1224,-9.6 1.71139,-5.77889 6.20128,-10.26878 11.98016,-11.98018 2.18832,-0.64806 6.90048,-0.67496 9.2,-0.0525 1.45565,0.39403 1.90435,0.39323 3.36,-0.006 2.35987,-0.64721 6.78022,-0.63202 9.06141,0.0311 3.05168,0.88715 5.58825,2.35795 7.68822,4.45792 3.30493,3.30492 5.01075,7.51718 4.98573,12.31149 -0.0399,7.66105 -4.82378,14.08047 -12.21536,16.39179 -2.50819,0.78431 -6.9952,0.86121 -9.53203,0.16338 -1.21911,-0.33535 -1.97936,-0.37908 -2.72,-0.15646 -1.73571,0.52175 -5.08179,0.77606 -7.26797,0.55239 z m -15.67974,-49.95061 c 0,-10.86355 0.81856,-17.84238 2.52313,-21.52235 1.75479,-3.78833 6.51101,-8.41467 15.68119,-15.25295 5.32012,-3.96728 9.41529,-8.01741 10.84585,-10.72659 3.7521,-7.10562 2.82487,-16.479179 -2.10803,-21.310715 -1.96368,-1.92334 -5.03261,-3.749747 -6.30074,-3.749747 -2.80873,0 -7.96176,4.312727 -10.13228,8.48 -2.20384,4.231207 -4.36176,11.415842 -5.13578,17.098972 -0.22317,1.63873 -0.57075,3.04282 -0.77242,3.1202 -0.20163,0.0774 -3.45808,-0.66102 -7.23657,-1.64089 -5.86928,-1.52208 -8.81971,-2.061 -20.2561,-3.69993 -7.36243,-1.05509 -13.50371,-1.91835 -13.64736,-1.91835 -0.43712,0 -0.29693,-1.23601 0.69546,-6.13182 2.75049,-13.56893 8.5,-24.28829 16.90915,-31.525388 7.37232,-6.344771 16.81898,-10.609667 26.81286,-12.105222 5.06346,-0.757731 25.67479,-0.763923 30.63757,-0.0092 10.83082,1.647104 19.49085,5.480371 27.32922,12.096979 9.44419,7.972157 14.1944,18.366998 14.21872,31.114661 0.0205,10.76254 -3.38487,19.64457 -10.77082,28.09279 -3.33897,3.81921 -7.29897,7.19637 -13.24032,11.29154 -8.65014,5.96227 -11.52333,8.45381 -12.96525,11.243 -0.91881,1.77734 -1.5439,5.22088 -1.75948,9.69267 l -0.20826,4.32 -20.56,0.0823 -20.56,0.0823 2.6e-4,-7.12235 z"
       id="path6157"
       inkscape:connector-curvature="0" />
  </g>
</svg>
