<?xml version="1.0" encoding="UTF-8" standalone="no"?>
<!-- Created with Inkscape (http://www.inkscape.org/) -->

<svg
   xmlns:dc="http://purl.org/dc/elements/1.1/"
   xmlns:cc="http://creativecommons.org/ns#"
   xmlns:rdf="http://www.w3.org/1999/02/22-rdf-syntax-ns#"
   xmlns:svg="http://www.w3.org/2000/svg"
   xmlns="http://www.w3.org/2000/svg"
   xmlns:sodipodi="http://sodipodi.sourceforge.net/DTD/sodipodi-0.dtd"
   xmlns:inkscape="http://www.inkscape.org/namespaces/inkscape"
   width="205.44179mm"
   height="153.81567mm"
   viewBox="0 0 205.44179 153.81567"
   version="1.1"
   id="svg1310"
   sodipodi:docname="header_title.svg"
   inkscape:version="0.92.3 (2405546, 2018-03-11)">
  <defs
     id="defs1304" />
  <sodipodi:namedview
     id="base"
     pagecolor="#ffffff"
     bordercolor="#666666"
     borderopacity="1.0"
     inkscape:pageopacity="0.0"
     inkscape:pageshadow="2"
     inkscape:zoom="0.98994949"
     inkscape:cx="725.87382"
     inkscape:cy="33.127305"
     inkscape:document-units="mm"
     inkscape:current-layer="layer1"
     showgrid="false"
     fit-margin-top="0"
     fit-margin-left="0"
     fit-margin-right="0"
     fit-margin-bottom="0"
     inkscape:window-width="2560"
     inkscape:window-height="1377"
     inkscape:window-x="-8"
     inkscape:window-y="-8"
     inkscape:window-maximized="1" />
  <metadata
     id="metadata1307">
    <rdf:RDF>
      <cc:Work
         rdf:about="">
        <dc:format>image/svg+xml</dc:format>
        <dc:type
           rdf:resource="http://purl.org/dc/dcmitype/StillImage" />
        <dc:title></dc:title>
      </cc:Work>
    </rdf:RDF>
  </metadata>
  <g
     inkscape:label="Ebene 1"
     inkscape:groupmode="layer"
     id="layer1"
     transform="translate(803.48874,372.5745)">
    <g
       aria-label="virus tracker"
       style="font-style:normal;font-variant:normal;font-weight:normal;font-stretch:normal;font-size:10.58333302px;line-height:1.25;font-family:'Poppins Light';-inkscape-font-specification:'Poppins Light, ';letter-spacing:0px;word-spacing:0px;display:inline;fill:#000000;fill-opacity:1;stroke:none;stroke-width:0.26458332"
       id="text4752">
      <path
         d="m -770.90737,-294.18366 4.6482,-11.8618 h 1.9304 l -5.588,13.8684 h -2.032 l -5.588,-13.8684 h 1.9304 z"
         style="font-style:normal;font-variant:normal;font-weight:300;font-stretch:normal;font-size:25.39999962px;font-family:Poppins;-inkscape-font-specification:'Poppins Light';fill:#759696;fill-opacity:1;stroke-width:0.26458332"
         id="path1473" />
      <path
         d="m -762.3555,-310.16026 q 0,-0.5588 0.3556,-0.889 0.381,-0.3302 0.9652,-0.3302 0.5842,0 0.9398,0.3302 0.3556,0.3302 0.3556,0.889 0,0.5334 -0.3556,0.8636 -0.3556,0.3302 -0.9398,0.3302 -0.5842,0 -0.9652,-0.3302 -0.3556,-0.3302 -0.3556,-0.8636 z m 2.2098,4.1148 v 13.8684 h -1.8034 v -13.8684 z"
         style="font-style:normal;font-variant:normal;font-weight:300;font-stretch:normal;font-size:25.39999962px;font-family:Poppins;-inkscape-font-specification:'Poppins Light';fill:#759696;fill-opacity:1;stroke-width:0.26458332"
         id="path1475" />
      <path
         d="m -754.49024,-303.17526 q 0.6096,-1.4986 1.9558,-2.3114 1.3462,-0.8128 3.2766,-0.8128 v 1.9304 h -0.5842 q -2.0066,0 -3.3274,1.0922 -1.3208,1.0668 -1.3208,3.5052 v 7.5946 h -1.8034 v -13.8684 h 1.8034 z"
         style="font-style:normal;font-variant:normal;font-weight:300;font-stretch:normal;font-size:25.39999962px;font-family:Poppins;-inkscape-font-specification:'Poppins Light';fill:#759696;fill-opacity:1;stroke-width:0.26458332"
         id="path1477" />
      <path
         d="m -734.95406,-306.04546 v 13.8684 h -1.778 v -3.429 q -0.5334,1.8034 -1.9304,2.7432 -1.397,0.9398 -3.2004,0.9398 -2.4384,0 -3.9624,-1.524 -1.4986,-1.5494 -1.4986,-4.5212 v -8.0772 h 1.778 v 7.9248 q 0,2.286 1.143,3.5052 1.143,1.1938 3.1242,1.1938 2.0828,0 3.302,-1.3208 1.2446,-1.3462 1.2446,-3.937 v -7.366 z"
         style="font-style:normal;font-variant:normal;font-weight:300;font-stretch:normal;font-size:25.39999962px;font-family:Poppins;-inkscape-font-specification:'Poppins Light';fill:#759696;fill-opacity:1;stroke-width:0.26458332"
         id="path1479" />
      <path
         d="m -726.90107,-306.22326 q 2.2606,0 3.6322,1.1938 1.3716,1.1938 1.6764,3.2258 h -1.7018 q -0.1524,-1.3462 -1.1176,-2.2098 -0.9398,-0.889 -2.54,-0.889 -1.3716,0 -2.159,0.6858 -0.762,0.6604 -0.762,1.778 0,0.8382 0.4826,1.3462 0.508,0.508 1.2446,0.7874 0.7366,0.254 1.9812,0.5334 1.524,0.3556 2.4384,0.7366 0.9398,0.3556 1.6002,1.143 0.6604,0.7874 0.6604,2.1336 0,1.651 -1.2446,2.7178 -1.2192,1.0414 -3.2512,1.0414 -2.3876,0 -3.9116,-1.1684 -1.524,-1.1938 -1.8034,-3.2512 h 1.7272 q 0.1524,1.3716 1.1938,2.2352 1.0414,0.8636 2.8194,0.8636 1.3208,0 2.0574,-0.6858 0.7366,-0.6858 0.7366,-1.778 0,-0.889 -0.508,-1.4224 -0.508,-0.5334 -1.27,-0.7874 -0.7366,-0.2794 -2.032,-0.5842 -1.4986,-0.3556 -2.413,-0.7112 -0.889,-0.3556 -1.524,-1.0922 -0.635,-0.762 -0.635,-2.0574 0,-1.7018 1.2446,-2.7432 1.2446,-1.0414 3.3782,-1.0414 z"
         style="font-style:normal;font-variant:normal;font-weight:300;font-stretch:normal;font-size:25.39999962px;font-family:Poppins;-inkscape-font-specification:'Poppins Light';fill:#759696;fill-opacity:1;stroke-width:0.26458332"
         id="path1481" />
      <path
         d="m -705.29639,-293.75186 v 1.5748 h -1.651 q -2.0066,0 -2.9972,-0.9398 -0.9906,-0.9652 -0.9906,-3.2258 v -8.1534 h -2.1082 v -1.5494 h 2.1082 v -3.5052 h 1.8034 v 3.5052 h 3.81 v 1.5494 h -3.81 v 8.1788 q 0,1.4732 0.5334,2.032 0.5334,0.5334 1.8796,0.5334 z"
         style="font-style:normal;font-variant:normal;font-weight:300;font-stretch:normal;font-size:25.39999962px;font-family:Poppins;-inkscape-font-specification:'Poppins Light';fill:#759696;fill-opacity:1;stroke-width:0.26458332"
         id="path1483" />
      <path
         d="m -700.56485,-303.17526 q 0.6096,-1.4986 1.9558,-2.3114 1.3462,-0.8128 3.2766,-0.8128 v 1.9304 h -0.5842 q -2.0066,0 -3.3274,1.0922 -1.3208,1.0668 -1.3208,3.5052 v 7.5946 h -1.8034 v -13.8684 h 1.8034 z"
         style="font-style:normal;font-variant:normal;font-weight:300;font-stretch:normal;font-size:25.39999962px;font-family:Poppins;-inkscape-font-specification:'Poppins Light';fill:#759696;fill-opacity:1;stroke-width:0.26458332"
         id="path1485" />
      <path
         d="m -687.15007,-306.22326 q 2.1082,0 3.5814,1.0922 1.4986,1.0922 2.0574,2.8956 v -3.81 h 1.7526 v 13.8684 h -1.7526 v -3.81 q -0.5588,1.8034 -2.0574,2.8956 -1.4732,1.0922 -3.5814,1.0922 -1.8796,0 -3.3782,-0.8636 -1.4732,-0.8636 -2.3114,-2.4638 -0.8128,-1.6256 -0.8128,-3.7846 0,-2.1844 0.8128,-3.7846 0.8382,-1.6256 2.3114,-2.4638 1.4732,-0.8636 3.3782,-0.8636 z m 0.4572,1.5748 q -2.3368,0 -3.7592,1.4986 -1.397,1.4732 -1.397,4.0386 0,2.5654 1.397,4.064 1.4224,1.4732 3.7592,1.4732 1.4732,0 2.6416,-0.6858 1.1938,-0.6858 1.8542,-1.9304 0.6858,-1.27 0.6858,-2.921 0,-1.651 -0.6858,-2.8956 -0.6604,-1.27 -1.8542,-1.9558 -1.1684,-0.6858 -2.6416,-0.6858 z"
         style="font-style:normal;font-variant:normal;font-weight:300;font-stretch:normal;font-size:25.39999962px;font-family:Poppins;-inkscape-font-specification:'Poppins Light';fill:#759696;fill-opacity:1;stroke-width:0.26458332"
         id="path1487" />
      <path
         d="m -669.75544,-306.22326 q 2.6416,0 4.3688,1.397 1.7526,1.397 2.1336,3.7084 h -1.8542 q -0.2794,-1.651 -1.5494,-2.5908 -1.27,-0.9652 -3.1242,-0.9652 -1.3462,0 -2.4892,0.6096 -1.1176,0.6096 -1.8034,1.8796 -0.6604,1.2446 -0.6604,3.0734 0,1.8288 0.6604,3.0988 0.6858,1.2446 1.8034,1.8542 1.143,0.6096 2.4892,0.6096 1.8542,0 3.1242,-0.9398 1.27,-0.9652 1.5494,-2.6162 h 1.8542 q -0.381,2.3114 -2.1336,3.7084 -1.7272,1.397 -4.3688,1.397 -1.9812,0 -3.5306,-0.8382 -1.524,-0.8636 -2.3876,-2.4638 -0.8636,-1.6256 -0.8636,-3.81 0,-2.1844 0.8636,-3.7846 0.8636,-1.6256 2.3876,-2.4638 1.5494,-0.8636 3.5306,-0.8636 z"
         style="font-style:normal;font-variant:normal;font-weight:300;font-stretch:normal;font-size:25.39999962px;font-family:Poppins;-inkscape-font-specification:'Poppins Light';fill:#759696;fill-opacity:1;stroke-width:0.26458332"
         id="path1489" />
      <path
         d="m -652.63465,-292.17706 -5.6134,-6.35 v 6.35 h -1.8034 v -18.796 h 1.8034 v 11.0236 l 5.5118,-6.096 h 2.2098 l -6.3754,6.858 6.5532,7.0104 z"
         style="font-style:normal;font-variant:normal;font-weight:300;font-stretch:normal;font-size:25.39999962px;font-family:Poppins;-inkscape-font-specification:'Poppins Light';fill:#759696;fill-opacity:1;stroke-width:0.26458332"
         id="path1491" />
      <path
         d="m -642.19922,-293.47246 q 1.8796,0 3.1496,-0.9398 1.27,-0.9398 1.524,-2.54 h 1.8796 q -0.381,2.2098 -2.1082,3.5814 -1.7272,1.3716 -4.3688,1.3716 -1.9812,0 -3.5306,-0.8382 -1.524,-0.8636 -2.3876,-2.4638 -0.8636,-1.6256 -0.8636,-3.81 0,-2.1844 0.8636,-3.7846 0.8636,-1.6256 2.3876,-2.4638 1.5494,-0.8636 3.5306,-0.8636 2.032,0 3.5052,0.8636 1.4986,0.8382 2.2606,2.2606 0.7874,1.4224 0.7874,3.0988 0,0.7112 -0.1016,1.2954 h -11.4808 q 0.0254,1.7526 0.7112,2.9464 0.7112,1.1684 1.8288,1.7272 1.1176,0.5588 2.413,0.5588 z m 0.0762,-11.303 q -1.3462,0 -2.4638,0.5588 -1.1176,0.5588 -1.8288,1.7272 -0.6858,1.143 -0.7366,2.8702 h 9.8044 q 0.1016,-1.7018 -0.5588,-2.8702 -0.6604,-1.1684 -1.778,-1.7272 -1.1176,-0.5588 -2.4384,-0.5588 z"
         style="font-style:normal;font-variant:normal;font-weight:300;font-stretch:normal;font-size:25.39999962px;font-family:Poppins;-inkscape-font-specification:'Poppins Light';fill:#759696;fill-opacity:1;stroke-width:0.26458332"
         id="path1493" />
      <path
         d="m -630.56602,-303.17526 q 0.6096,-1.4986 1.9558,-2.3114 1.3462,-0.8128 3.2766,-0.8128 v 1.9304 h -0.5842 q -2.0066,0 -3.3274,1.0922 -1.3208,1.0668 -1.3208,3.5052 v 7.5946 h -1.8034 v -13.8684 h 1.8034 z"
         style="font-style:normal;font-variant:normal;font-weight:300;font-stretch:normal;font-size:25.39999962px;font-family:Poppins;-inkscape-font-specification:'Poppins Light';fill:#759696;fill-opacity:1;stroke-width:0.26458332"
         id="path1495" />
    </g>
    <g
       aria-label="spread the app - not the virus!"
       style="font-style:normal;font-variant:normal;font-weight:normal;font-stretch:normal;font-size:10.58333302px;line-height:1.25;font-family:'Poppins Light';-inkscape-font-specification:'Poppins Light, ';letter-spacing:0px;word-spacing:0px;display:inline;fill:#000000;fill-opacity:1;stroke:none;stroke-width:0.26458332"
       id="text4756">
      <path
         d="m -772.9286,-285.33955 q 0.87912,0 1.41252,0.46426 0.5334,0.46425 0.65194,1.25448 h -0.66181 q -0.0593,-0.52353 -0.43463,-0.85937 -0.36547,-0.34572 -0.98777,-0.34572 -0.5334,0 -0.83962,0.2667 -0.29633,0.25682 -0.29633,0.69144 0,0.32597 0.18768,0.52352 0.19755,0.19756 0.48401,0.30622 0.28646,0.0988 0.77047,0.20743 0.59266,0.13829 0.94826,0.28645 0.36548,0.13829 0.6223,0.4445 0.25683,0.30622 0.25683,0.82974 0,0.64205 -0.48402,1.05692 -0.47413,0.40499 -1.26435,0.40499 -0.92851,0 -1.52118,-0.45438 -0.59267,-0.46426 -0.70132,-1.26436 h 0.67169 q 0.0593,0.5334 0.46425,0.86925 0.40499,0.33584 1.09644,0.33584 0.51364,0 0.8001,-0.2667 0.28645,-0.2667 0.28645,-0.69144 0,-0.34572 -0.19755,-0.55316 -0.19756,-0.20743 -0.49389,-0.30621 -0.28646,-0.10865 -0.79022,-0.22719 -0.58279,-0.13828 -0.93839,-0.27657 -0.34573,-0.13829 -0.59267,-0.42475 -0.24694,-0.29633 -0.24694,-0.8001 0,-0.66181 0.48401,-1.0668 0.48401,-0.40499 1.31374,-0.40499 z"
         style="font-style:normal;font-variant:normal;font-weight:300;font-stretch:normal;font-size:9.8777771px;font-family:Poppins;-inkscape-font-specification:'Poppins Light';fill:#759696;fill-opacity:1;stroke-width:0.26458332"
         id="path1422" />
      <path
         d="m -766.65806,-285.33955 q 0.74083,0 1.30386,0.33585 0.57292,0.32596 0.889,0.95814 0.32597,0.6223 0.32597,1.47179 0,0.83961 -0.32597,1.47179 -0.31608,0.6223 -0.889,0.95814 -0.57291,0.33585 -1.30386,0.33585 -0.82974,0 -1.40265,-0.42475 -0.57291,-0.42474 -0.79022,-1.12606 v 4.03013 h -0.69144 v -7.94173 h 0.69144 v 1.48166 q 0.21731,-0.70132 0.79022,-1.12606 0.57291,-0.42475 1.40265,-0.42475 z m -0.18768,0.61243 q -0.57291,0 -1.03717,0.2667 -0.45437,0.2667 -0.7112,0.76058 -0.25682,0.48402 -0.25682,1.12607 0,0.64206 0.25682,1.13594 0.25683,0.48402 0.7112,0.75072 0.46426,0.2667 1.03717,0.2667 0.91863,0 1.46191,-0.57292 0.54328,-0.58278 0.54328,-1.58044 0,-0.99765 -0.54328,-1.57057 -0.54328,-0.58278 -1.46191,-0.58278 z"
         style="font-style:normal;font-variant:normal;font-weight:300;font-stretch:normal;font-size:9.8777771px;font-family:Poppins;-inkscape-font-specification:'Poppins Light';fill:#759696;fill-opacity:1;stroke-width:0.26458332"
         id="path1424" />
      <path
         d="m -762.18513,-284.15421 q 0.23707,-0.58279 0.76059,-0.89888 0.52352,-0.31609 1.27424,-0.31609 v 0.75071 h -0.22719 q -0.78035,0 -1.29399,0.42475 -0.51365,0.41486 -0.51365,1.36313 v 2.95345 h -0.70132 v -5.39326 h 0.70132 z"
         style="font-style:normal;font-variant:normal;font-weight:300;font-stretch:normal;font-size:9.8777771px;font-family:Poppins;-inkscape-font-specification:'Poppins Light';fill:#759696;fill-opacity:1;stroke-width:0.26458332"
         id="path1426" />
      <path
         d="m -756.88925,-280.3809 q 0.73096,0 1.22484,-0.36548 0.49389,-0.36548 0.59267,-0.98778 h 0.73096 q -0.14817,0.85937 -0.81986,1.39277 -0.67169,0.5334 -1.69898,0.5334 -0.77046,0 -1.37301,-0.32597 -0.59266,-0.33584 -0.92851,-0.95814 -0.33584,-0.63218 -0.33584,-1.48167 0,-0.84949 0.33584,-1.47179 0.33585,-0.63218 0.92851,-0.95814 0.60255,-0.33585 1.37301,-0.33585 0.79023,0 1.36314,0.33585 0.58279,0.32596 0.87912,0.87912 0.30621,0.55316 0.30621,1.20509 0,0.27658 -0.0395,0.50377 h -4.46476 q 0.01,0.68156 0.27658,1.14582 0.27658,0.45437 0.7112,0.67169 0.43462,0.21731 0.93839,0.21731 z m 0.0296,-4.39561 q -0.52352,0 -0.95814,0.21731 -0.43462,0.21731 -0.7112,0.67169 -0.2667,0.4445 -0.28646,1.11619 h 3.81283 q 0.0395,-0.66182 -0.21732,-1.11619 -0.25682,-0.45438 -0.69144,-0.67169 -0.43462,-0.21731 -0.94827,-0.21731 z"
         style="font-style:normal;font-variant:normal;font-weight:300;font-stretch:normal;font-size:9.8777771px;font-family:Poppins;-inkscape-font-specification:'Poppins Light';fill:#759696;fill-opacity:1;stroke-width:0.26458332"
         id="path1428" />
      <path
         d="m -750.79466,-285.33955 q 0.81985,0 1.39277,0.42475 0.58278,0.42474 0.8001,1.12606 v -1.48166 h 0.68156 v 5.39326 h -0.68156 v -1.48166 q -0.21732,0.70132 -0.8001,1.12606 -0.57292,0.42475 -1.39277,0.42475 -0.73096,0 -1.31375,-0.33585 -0.57291,-0.33584 -0.89887,-0.95814 -0.31609,-0.63218 -0.31609,-1.47179 0,-0.84949 0.31609,-1.47179 0.32596,-0.63218 0.89887,-0.95814 0.57292,-0.33585 1.31375,-0.33585 z m 0.1778,0.61243 q -0.90876,0 -1.46191,0.58278 -0.54328,0.57292 -0.54328,1.57057 0,0.99766 0.54328,1.58044 0.55315,0.57292 1.46191,0.57292 0.57291,0 1.02729,-0.2667 0.46425,-0.2667 0.72108,-0.75072 0.2667,-0.49388 0.2667,-1.13594 0,-0.64205 -0.2667,-1.12607 -0.25683,-0.49388 -0.72108,-0.76058 -0.45438,-0.2667 -1.02729,-0.2667 z"
         style="font-style:normal;font-variant:normal;font-weight:300;font-stretch:normal;font-size:9.8777771px;font-family:Poppins;-inkscape-font-specification:'Poppins Light';fill:#759696;fill-opacity:1;stroke-width:0.26458332"
         id="path1430" />
      <path
         d="m -744.13874,-285.33955 q 0.81986,0 1.39277,0.42475 0.58279,0.42474 0.79022,1.12606 v -3.39795 h 0.69145 v 7.30955 h -0.69145 v -1.48166 q -0.20743,0.70132 -0.79022,1.12606 -0.57291,0.42475 -1.39277,0.42475 -0.73095,0 -1.31374,-0.33585 -0.57291,-0.33584 -0.89888,-0.95814 -0.31609,-0.63218 -0.31609,-1.47179 0,-0.84949 0.31609,-1.47179 0.32597,-0.63218 0.89888,-0.95814 0.57291,-0.33585 1.31374,-0.33585 z m 0.1778,0.61243 q -0.90875,0 -1.46191,0.58278 -0.54328,0.57292 -0.54328,1.57057 0,0.99766 0.54328,1.58044 0.55316,0.57292 1.46191,0.57292 0.57291,0 1.02729,-0.2667 0.46426,-0.2667 0.72108,-0.75072 0.2667,-0.49388 0.2667,-1.13594 0,-0.64205 -0.2667,-1.12607 -0.25682,-0.49388 -0.72108,-0.76058 -0.45438,-0.2667 -1.02729,-0.2667 z"
         style="font-style:normal;font-variant:normal;font-weight:300;font-stretch:normal;font-size:9.8777771px;font-family:Poppins;-inkscape-font-specification:'Poppins Light';fill:#759696;fill-opacity:1;stroke-width:0.26458332"
         id="path1432" />
      <path
         d="m -734.73911,-280.48956 v 0.61242 h -0.64205 q -0.78035,0 -1.16558,-0.36547 -0.38523,-0.37536 -0.38523,-1.25448 v -3.17077 h -0.81986 v -0.60254 h 0.81986 v -1.36314 h 0.70132 v 1.36314 h 1.48167 v 0.60254 h -1.48167 v 3.18065 q 0,0.57291 0.20743,0.79022 0.20744,0.20743 0.73096,0.20743 z"
         style="font-style:normal;font-variant:normal;font-weight:300;font-stretch:normal;font-size:9.8777771px;font-family:Poppins;-inkscape-font-specification:'Poppins Light';fill:#759696;fill-opacity:1;stroke-width:0.26458332"
         id="path1434" />
      <path
         d="m -730.90375,-285.36918 q 0.93839,0 1.52118,0.60254 0.59267,0.59267 0.59267,1.74837 v 3.14113 h -0.68157 v -3.09174 q 0,-0.87912 -0.4445,-1.34338 -0.4445,-0.47413 -1.21497,-0.47413 -0.80998,0 -1.29399,0.52352 -0.47413,0.51365 -0.47413,1.52118 v 2.86455 h -0.70132 v -7.30955 h 0.70132 v 3.23991 q 0.20743,-0.69144 0.75071,-1.05692 0.54328,-0.36548 1.2446,-0.36548 z"
         style="font-style:normal;font-variant:normal;font-weight:300;font-stretch:normal;font-size:9.8777771px;font-family:Poppins;-inkscape-font-specification:'Poppins Light';fill:#759696;fill-opacity:1;stroke-width:0.26458332"
         id="path1436" />
      <path
         d="m -724.9794,-280.3809 q 0.73096,0 1.22485,-0.36548 0.49388,-0.36548 0.59266,-0.98778 h 0.73096 q -0.14817,0.85937 -0.81986,1.39277 -0.67169,0.5334 -1.69898,0.5334 -0.77046,0 -1.37301,-0.32597 -0.59266,-0.33584 -0.92851,-0.95814 -0.33584,-0.63218 -0.33584,-1.48167 0,-0.84949 0.33584,-1.47179 0.33585,-0.63218 0.92851,-0.95814 0.60255,-0.33585 1.37301,-0.33585 0.79023,0 1.36314,0.33585 0.58279,0.32596 0.87912,0.87912 0.30621,0.55316 0.30621,1.20509 0,0.27658 -0.0395,0.50377 h -4.46475 q 0.01,0.68156 0.27657,1.14582 0.27658,0.45437 0.7112,0.67169 0.43463,0.21731 0.93839,0.21731 z m 0.0296,-4.39561 q -0.52352,0 -0.95814,0.21731 -0.43462,0.21731 -0.7112,0.67169 -0.2667,0.4445 -0.28645,1.11619 h 3.81282 q 0.0395,-0.66182 -0.21731,-1.11619 -0.25683,-0.45438 -0.69145,-0.67169 -0.43462,-0.21731 -0.94827,-0.21731 z"
         style="font-style:normal;font-variant:normal;font-weight:300;font-stretch:normal;font-size:9.8777771px;font-family:Poppins;-inkscape-font-specification:'Poppins Light';fill:#759696;fill-opacity:1;stroke-width:0.26458332"
         id="path1438" />
      <path
         d="m -716.3189,-285.33955 q 0.81985,0 1.39276,0.42475 0.58279,0.42474 0.8001,1.12606 v -1.48166 h 0.68157 v 5.39326 h -0.68157 v -1.48166 q -0.21731,0.70132 -0.8001,1.12606 -0.57291,0.42475 -1.39276,0.42475 -0.73096,0 -1.31375,-0.33585 -0.57291,-0.33584 -0.89888,-0.95814 -0.31608,-0.63218 -0.31608,-1.47179 0,-0.84949 0.31608,-1.47179 0.32597,-0.63218 0.89888,-0.95814 0.57291,-0.33585 1.31375,-0.33585 z m 0.1778,0.61243 q -0.90876,0 -1.46191,0.58278 -0.54328,0.57292 -0.54328,1.57057 0,0.99766 0.54328,1.58044 0.55315,0.57292 1.46191,0.57292 0.57291,0 1.02729,-0.2667 0.46425,-0.2667 0.72107,-0.75072 0.2667,-0.49388 0.2667,-1.13594 0,-0.64205 -0.2667,-1.12607 -0.25682,-0.49388 -0.72107,-0.76058 -0.45438,-0.2667 -1.02729,-0.2667 z"
         style="font-style:normal;font-variant:normal;font-weight:300;font-stretch:normal;font-size:9.8777771px;font-family:Poppins;-inkscape-font-specification:'Poppins Light';fill:#759696;fill-opacity:1;stroke-width:0.26458332"
         id="path1440" />
      <path
         d="m -709.05056,-285.33955 q 0.74083,0 1.30387,0.33585 0.57291,0.32596 0.889,0.95814 0.32596,0.6223 0.32596,1.47179 0,0.83961 -0.32596,1.47179 -0.31609,0.6223 -0.889,0.95814 -0.57291,0.33585 -1.30387,0.33585 -0.82973,0 -1.40264,-0.42475 -0.57291,-0.42474 -0.79023,-1.12606 v 4.03013 h -0.69144 v -7.94173 h 0.69144 v 1.48166 q 0.21732,-0.70132 0.79023,-1.12606 0.57291,-0.42475 1.40264,-0.42475 z m -0.18768,0.61243 q -0.57291,0 -1.03716,0.2667 -0.45438,0.2667 -0.7112,0.76058 -0.25683,0.48402 -0.25683,1.12607 0,0.64206 0.25683,1.13594 0.25682,0.48402 0.7112,0.75072 0.46425,0.2667 1.03716,0.2667 0.91864,0 1.46191,-0.57292 0.54328,-0.58278 0.54328,-1.58044 0,-0.99765 -0.54328,-1.57057 -0.54327,-0.58278 -1.46191,-0.58278 z"
         style="font-style:normal;font-variant:normal;font-weight:300;font-stretch:normal;font-size:9.8777771px;font-family:Poppins;-inkscape-font-specification:'Poppins Light';fill:#759696;fill-opacity:1;stroke-width:0.26458332"
         id="path1442" />
      <path
         d="m -702.39463,-285.33955 q 0.74083,0 1.30386,0.33585 0.57291,0.32596 0.889,0.95814 0.32597,0.6223 0.32597,1.47179 0,0.83961 -0.32597,1.47179 -0.31609,0.6223 -0.889,0.95814 -0.57291,0.33585 -1.30386,0.33585 -0.82974,0 -1.40265,-0.42475 -0.57291,-0.42474 -0.79022,-1.12606 v 4.03013 h -0.69144 v -7.94173 h 0.69144 v 1.48166 q 0.21731,-0.70132 0.79022,-1.12606 0.57291,-0.42475 1.40265,-0.42475 z m -0.18768,0.61243 q -0.57291,0 -1.03717,0.2667 -0.45438,0.2667 -0.7112,0.76058 -0.25682,0.48402 -0.25682,1.12607 0,0.64206 0.25682,1.13594 0.25682,0.48402 0.7112,0.75072 0.46426,0.2667 1.03717,0.2667 0.91863,0 1.46191,-0.57292 0.54328,-0.58278 0.54328,-1.58044 0,-0.99765 -0.54328,-1.57057 -0.54328,-0.58278 -1.46191,-0.58278 z"
         style="font-style:normal;font-variant:normal;font-weight:300;font-stretch:normal;font-size:9.8777771px;font-family:Poppins;-inkscape-font-specification:'Poppins Light';fill:#759696;fill-opacity:1;stroke-width:0.26458332"
         id="path1444" />
      <path
         d="m -693.16292,-283.82825 v 0.58279 h -3.85234 v -0.58279 z"
         style="font-style:normal;font-variant:normal;font-weight:300;font-stretch:normal;font-size:9.8777771px;font-family:Poppins;-inkscape-font-specification:'Poppins Light';fill:#759696;fill-opacity:1;stroke-width:0.26458332"
         id="path1446" />
      <path
         d="m -686.08719,-285.36918 q 0.93838,0 1.52117,0.60254 0.59267,0.59267 0.59267,1.74837 v 3.14113 h -0.68157 v -3.09174 q 0,-0.87912 -0.4445,-1.34338 -0.4445,-0.47413 -1.21496,-0.47413 -0.80998,0 -1.29399,0.52352 -0.47414,0.51365 -0.47414,1.52118 v 2.86455 h -0.70132 v -5.39326 h 0.70132 v 1.32362 q 0.20744,-0.69144 0.75072,-1.05692 0.54327,-0.36548 1.2446,-0.36548 z"
         style="font-style:normal;font-variant:normal;font-weight:300;font-stretch:normal;font-size:9.8777771px;font-family:Poppins;-inkscape-font-specification:'Poppins Light';fill:#759696;fill-opacity:1;stroke-width:0.26458332"
         id="path1448" />
      <path
         d="m -680.07394,-285.33955 q 0.77046,0 1.37301,0.33585 0.61242,0.32596 0.95814,0.95814 0.34572,0.6223 0.34572,1.47179 0,0.84949 -0.34572,1.47179 -0.34572,0.6223 -0.95814,0.95814 -0.60255,0.33585 -1.37301,0.33585 -0.77047,0 -1.38289,-0.33585 -0.61242,-0.33584 -0.96802,-0.95814 -0.34573,-0.63218 -0.34573,-1.47179 0,-0.84949 0.34573,-1.47179 0.3556,-0.63218 0.96802,-0.95814 0.61242,-0.33585 1.38289,-0.33585 z m 0,0.60255 q -0.5334,0 -0.98778,0.23706 -0.45438,0.23707 -0.73096,0.73096 -0.27657,0.48401 -0.27657,1.19521 0,0.7112 0.27657,1.19521 0.27658,0.48401 0.73096,0.72108 0.45438,0.23707 0.98778,0.23707 0.52352,0 0.96802,-0.23707 0.45438,-0.23707 0.73095,-0.72108 0.27658,-0.48401 0.27658,-1.19521 0,-0.7112 -0.27658,-1.19521 -0.27657,-0.49389 -0.73095,-0.73096 -0.4445,-0.23706 -0.96802,-0.23706 z"
         style="font-style:normal;font-variant:normal;font-weight:300;font-stretch:normal;font-size:9.8777771px;font-family:Poppins;-inkscape-font-specification:'Poppins Light';fill:#759696;fill-opacity:1;stroke-width:0.26458332"
         id="path1450" />
      <path
         d="m -673.69753,-280.48956 v 0.61242 h -0.64206 q -0.78034,0 -1.16558,-0.36547 -0.38523,-0.37536 -0.38523,-1.25448 v -3.17077 h -0.81986 v -0.60254 h 0.81986 v -1.36314 h 0.70132 v 1.36314 h 1.48167 v 0.60254 h -1.48167 v 3.18065 q 0,0.57291 0.20743,0.79022 0.20744,0.20743 0.73096,0.20743 z"
         style="font-style:normal;font-variant:normal;font-weight:300;font-stretch:normal;font-size:9.8777771px;font-family:Poppins;-inkscape-font-specification:'Poppins Light';fill:#759696;fill-opacity:1;stroke-width:0.26458332"
         id="path1452" />
      <path
         d="m -667.54321,-280.48956 v 0.61242 h -0.64206 q -0.78034,0 -1.16558,-0.36547 -0.38523,-0.37536 -0.38523,-1.25448 v -3.17077 h -0.81986 v -0.60254 h 0.81986 v -1.36314 h 0.70132 v 1.36314 h 1.48167 v 0.60254 h -1.48167 v 3.18065 q 0,0.57291 0.20743,0.79022 0.20744,0.20743 0.73096,0.20743 z"
         style="font-style:normal;font-variant:normal;font-weight:300;font-stretch:normal;font-size:9.8777771px;font-family:Poppins;-inkscape-font-specification:'Poppins Light';fill:#759696;fill-opacity:1;stroke-width:0.26458332"
         id="path1454" />
      <path
         d="m -663.70785,-285.36918 q 0.93839,0 1.52117,0.60254 0.59267,0.59267 0.59267,1.74837 v 3.14113 h -0.68157 v -3.09174 q 0,-0.87912 -0.4445,-1.34338 -0.4445,-0.47413 -1.21496,-0.47413 -0.80998,0 -1.29399,0.52352 -0.47413,0.51365 -0.47413,1.52118 v 2.86455 h -0.70133 v -7.30955 h 0.70133 v 3.23991 q 0.20743,-0.69144 0.75071,-1.05692 0.54327,-0.36548 1.2446,-0.36548 z"
         style="font-style:normal;font-variant:normal;font-weight:300;font-stretch:normal;font-size:9.8777771px;font-family:Poppins;-inkscape-font-specification:'Poppins Light';fill:#759696;fill-opacity:1;stroke-width:0.26458332"
         id="path1456" />
      <path
         d="m -657.7835,-280.3809 q 0.73095,0 1.22484,-0.36548 0.49389,-0.36548 0.59267,-0.98778 h 0.73095 q -0.14816,0.85937 -0.81985,1.39277 -0.67169,0.5334 -1.69898,0.5334 -0.77047,0 -1.37301,-0.32597 -0.59267,-0.33584 -0.92851,-0.95814 -0.33585,-0.63218 -0.33585,-1.48167 0,-0.84949 0.33585,-1.47179 0.33584,-0.63218 0.92851,-0.95814 0.60254,-0.33585 1.37301,-0.33585 0.79022,0 1.36313,0.33585 0.58279,0.32596 0.87913,0.87912 0.30621,0.55316 0.30621,1.20509 0,0.27658 -0.0395,0.50377 h -4.46476 q 0.01,0.68156 0.27658,1.14582 0.27658,0.45437 0.7112,0.67169 0.43462,0.21731 0.93839,0.21731 z m 0.0296,-4.39561 q -0.52352,0 -0.95814,0.21731 -0.43463,0.21731 -0.7112,0.67169 -0.2667,0.4445 -0.28646,1.11619 h 3.81282 q 0.0395,-0.66182 -0.21731,-1.11619 -0.25682,-0.45438 -0.69144,-0.67169 -0.43462,-0.21731 -0.94827,-0.21731 z"
         style="font-style:normal;font-variant:normal;font-weight:300;font-stretch:normal;font-size:9.8777771px;font-family:Poppins;-inkscape-font-specification:'Poppins Light';fill:#759696;fill-opacity:1;stroke-width:0.26458332"
         id="path1458" />
      <path
         d="m -649.39958,-280.65748 1.80763,-4.61292 h 0.75071 l -2.17311,5.39326 h -0.79022 l -2.17311,-5.39326 h 0.75071 z"
         style="font-style:normal;font-variant:normal;font-weight:300;font-stretch:normal;font-size:9.8777771px;font-family:Poppins;-inkscape-font-specification:'Poppins Light';fill:#759696;fill-opacity:1;stroke-width:0.26458332"
         id="path1460" />
      <path
         d="m -646.07387,-286.8706 q 0,-0.21731 0.13829,-0.34572 0.14817,-0.12842 0.37536,-0.12842 0.22719,0 0.36547,0.12842 0.13829,0.12841 0.13829,0.34572 0,0.20743 -0.13829,0.33584 -0.13828,0.12841 -0.36547,0.12841 -0.22719,0 -0.37536,-0.12841 -0.13829,-0.12841 -0.13829,-0.33584 z m 0.85937,1.6002 v 5.39326 h -0.70132 v -5.39326 z"
         style="font-style:normal;font-variant:normal;font-weight:300;font-stretch:normal;font-size:9.8777771px;font-family:Poppins;-inkscape-font-specification:'Poppins Light';fill:#759696;fill-opacity:1;stroke-width:0.26458332"
         id="path1462" />
      <path
         d="m -643.01515,-284.15421 q 0.23707,-0.58279 0.76059,-0.89888 0.52353,-0.31609 1.27424,-0.31609 v 0.75071 h -0.22719 q -0.78035,0 -1.29399,0.42475 -0.51365,0.41486 -0.51365,1.36313 v 2.95345 h -0.70132 v -5.39326 h 0.70132 z"
         style="font-style:normal;font-variant:normal;font-weight:300;font-stretch:normal;font-size:9.8777771px;font-family:Poppins;-inkscape-font-specification:'Poppins Light';fill:#759696;fill-opacity:1;stroke-width:0.26458332"
         id="path1464" />
      <path
         d="m -635.41775,-285.2704 v 5.39326 h -0.69144 v -1.3335 q -0.20744,0.70133 -0.75071,1.0668 -0.54328,0.36548 -1.2446,0.36548 -0.94827,0 -1.54094,-0.59267 -0.58279,-0.60254 -0.58279,-1.75824 v -3.14113 h 0.69145 v 3.08186 q 0,0.889 0.4445,1.36314 0.4445,0.46425 1.21497,0.46425 0.80997,0 1.28411,-0.51364 0.48401,-0.52352 0.48401,-1.53106 v -2.86455 z"
         style="font-style:normal;font-variant:normal;font-weight:300;font-stretch:normal;font-size:9.8777771px;font-family:Poppins;-inkscape-font-specification:'Poppins Light';fill:#759696;fill-opacity:1;stroke-width:0.26458332"
         id="path1466" />
      <path
         d="m -632.28604,-285.33955 q 0.87913,0 1.41253,0.46426 0.5334,0.46425 0.65193,1.25448 h -0.66181 q -0.0593,-0.52353 -0.43462,-0.85937 -0.36548,-0.34572 -0.98778,-0.34572 -0.5334,0 -0.83961,0.2667 -0.29634,0.25682 -0.29634,0.69144 0,0.32597 0.18768,0.52352 0.19756,0.19756 0.48401,0.30622 0.28646,0.0988 0.77047,0.20743 0.59267,0.13829 0.94827,0.28645 0.36547,0.13829 0.6223,0.4445 0.25682,0.30622 0.25682,0.82974 0,0.64205 -0.48401,1.05692 -0.47414,0.40499 -1.26436,0.40499 -0.92851,0 -1.52118,-0.45438 -0.59266,-0.46426 -0.70132,-1.26436 h 0.67169 q 0.0593,0.5334 0.46426,0.86925 0.40499,0.33584 1.09643,0.33584 0.51364,0 0.8001,-0.2667 0.28646,-0.2667 0.28646,-0.69144 0,-0.34572 -0.19756,-0.55316 -0.19756,-0.20743 -0.49389,-0.30621 -0.28645,-0.10865 -0.79022,-0.22719 -0.58279,-0.13828 -0.93839,-0.27657 -0.34572,-0.13829 -0.59267,-0.42475 -0.24694,-0.29633 -0.24694,-0.8001 0,-0.66181 0.48401,-1.0668 0.48401,-0.40499 1.31374,-0.40499 z"
         style="font-style:normal;font-variant:normal;font-weight:300;font-stretch:normal;font-size:9.8777771px;font-family:Poppins;-inkscape-font-specification:'Poppins Light';fill:#759696;fill-opacity:1;stroke-width:0.26458332"
         id="path1468" />
      <path
         d="m -627.88239,-286.9595 -0.10866,5.14632 h -0.55315 l -0.10866,-5.14632 z m 0.0889,6.19336 v 0.889 h -0.91863 v -0.889 z"
         style="font-style:normal;font-variant:normal;font-weight:300;font-stretch:normal;font-size:9.8777771px;font-family:Poppins;-inkscape-font-specification:'Poppins Light';fill:#759696;fill-opacity:1;stroke-width:0.26458332"
         id="path1470" />
    </g>
    <path
       style="fill:#678894;stroke-width:0.04780642"
       d="m -707.84345,-322.12726 c -0.96792,-0.19206 -1.96224,-0.78389 -2.54101,-1.51241 -0.56122,-0.70643 -11.3749,-16.20798 -11.56972,-16.58533 -0.23425,-0.45374 -0.37479,-0.95375 -0.45194,-1.6079 -0.0845,-0.71654 0.0759,-1.55035 0.43561,-2.26464 0.44582,-0.88522 0.92162,-1.36703 2.28014,-2.30891 0.67471,-0.4678 4.45099,-3.10224 5.29744,-3.69567 0.3944,-0.2765 2.07241,-1.44841 3.7289,-2.60425 2.31555,-1.61569 3.06706,-2.16444 3.25084,-2.37373 1.31847,-1.50155 2.38312,-2.26223 3.85591,-2.75498 0.91376,-0.30572 1.45803,-0.38674 2.59795,-0.38674 0.85539,0 1.08476,0.0162 1.55017,0.10947 0.95458,0.1913 1.84705,0.53777 2.7046,1.04999 0.72073,0.43048 1.70407,1.34642 2.26848,2.11298 0.16456,0.22349 0.31777,0.41329 0.34047,0.42178 0.0931,0.0348 0.45667,-0.33116 0.79807,-0.80346 0.44693,-0.61828 1.3741,-1.54947 1.93811,-1.9465 2.74671,-1.9335 6.49692,-1.93357 9.24503,-1.4e-4 0.54085,0.38052 1.53227,1.37194 1.91278,1.91279 1.93324,2.74786 1.93317,6.50236 0,9.24434 -0.35576,0.50456 -1.24987,1.42003 -1.7784,1.82089 -0.21116,0.16015 -1.4626,1.37207 -2.79419,2.70595 l -2.41175,2.41589 0.10608,0.32499 c 0.0583,0.17875 0.12702,0.45407 0.15262,0.61183 0.0684,0.42183 0.0571,1.23815 -0.0229,1.65654 -0.071,0.37106 -0.33918,1.05331 -0.56343,1.4334 -0.20846,0.35331 -0.73512,0.92795 -1.09936,1.1995 -0.76084,0.56723 -15.95725,11.18204 -16.22179,11.33105 -0.34237,0.19284 -0.71084,0.34252 -1.09627,0.44533 -0.39863,0.10632 -1.48127,0.13348 -1.91226,0.0479 z m 1.52639,-1.82802 c 0.38175,-0.0948 0.6138,-0.22157 1.31809,-0.72001 l 0.59758,-0.42293 0.3199,-1.79077 c 0.17595,-0.98492 0.44261,-2.47426 0.59259,-3.30963 0.14997,-0.83537 0.25999,-1.53155 0.24449,-1.54705 -0.0155,-0.0155 -0.70167,-0.14602 -1.52481,-0.29003 -0.82314,-0.14401 -2.44319,-0.42898 -3.6001,-0.63327 -1.54943,-0.2736 -2.11839,-0.35749 -2.16008,-0.3185 -0.0503,0.0471 -0.19354,0.80643 -0.73297,3.88617 l -0.15225,0.86922 1.21003,1.72845 c 0.79419,1.13446 1.30171,1.81327 1.47683,1.97526 0.64662,0.59815 1.49639,0.80016 2.4107,0.57309 z m 14.68786,-10.08641 c 1.98816,-1.39139 2.30473,-1.6423 2.54559,-2.01765 0.27653,-0.43093 0.50562,-1.30955 0.38812,-1.4885 -0.0377,-0.0573 -0.53129,0.41223 -2.46242,2.34233 -1.32843,1.32773 -2.41533,2.43026 -2.41533,2.45008 0,0.0198 0.0123,0.036 0.0273,0.036 0.015,0 0.87754,-0.59503 1.91674,-1.3223 z m -8.82816,-14.59724 0.0239,-1.02784 1.02784,-0.0239 1.02783,-0.0239 -0.0178,-1.21906 c -0.01,-0.67049 -0.0272,-1.2352 -0.0387,-1.25492 -0.0115,-0.0197 -0.46012,-0.0359 -0.99707,-0.0359 h -0.97625 l -0.0129,-1.01588 -0.0129,-1.01589 h -1.29078 -1.29077 l -0.008,0.95613 c -0.005,0.52587 -0.01,0.98258 -0.012,1.01492 -0.003,0.044 -0.25254,0.062 -0.9959,0.0717 l -0.99198,0.0129 v 1.24296 1.24297 l 0.95613,0.0125 c 0.83045,0.0109 0.96398,0.023 1.01589,0.0928 0.0431,0.0578 0.0598,0.3428 0.0598,1.01932 0,0.51646 0.0147,0.95372 0.0326,0.97168 0.0179,0.018 0.58268,0.0269 1.25492,0.0199 l 1.22226,-0.0128 z m -8.12722,0.87246 c -5e-5,-0.0197 -0.0624,-0.28325 -0.13856,-0.58563 -0.1949,-0.77406 -0.26442,-1.49417 -0.22567,-2.33771 0.0176,-0.38389 0.0447,-0.76791 0.0602,-0.85336 0.0174,-0.096 0.009,-0.15538 -0.023,-0.15538 -0.0386,0 -4.34883,2.99163 -4.44951,3.08829 -0.0109,0.0105 -0.008,0.0306 0.006,0.0446 0.0308,0.0308 4.45317,0.82137 4.63964,0.82939 0.0723,0.003 0.13141,-0.0105 0.13134,-0.0302 z"
       id="path1573"
       inkscape:connector-curvature="0" />
    <path
       style="fill:#03c9a2;stroke-width:0.04780642"
       d="m -707.53171,-322.15762 c -1.07917,-0.13263 -2.09555,-0.68341 -2.76607,-1.49896 -0.38875,-0.47284 -11.27815,-16.0358 -11.52481,-16.47107 -0.63654,-1.12331 -0.68548,-2.67986 -0.12169,-3.86982 0.32854,-0.69343 0.77071,-1.2279 1.40156,-1.69413 0.34901,-0.25794 5.46808,-3.84863 7.22543,-5.06816 0.30238,-0.20984 1.62124,-1.13183 2.9308,-2.04886 1.30957,-0.91703 2.44104,-1.70394 2.5144,-1.74868 0.0734,-0.0447 0.30631,-0.29647 0.51768,-0.5594 1.29743,-1.61391 2.90261,-2.6064 4.84491,-2.99565 0.46541,-0.0933 0.69479,-0.10947 1.55017,-0.10947 0.85539,0 1.08476,0.0162 1.55017,0.10947 1.1021,0.22086 2.22121,0.69564 3.09461,1.31286 0.57122,0.40368 1.38731,1.20049 1.82139,1.77835 0.19753,0.26296 0.37707,0.48505 0.39898,0.49354 0.0913,0.0353 0.45678,-0.33329 0.79664,-0.80346 0.44693,-0.61828 1.3741,-1.54947 1.93811,-1.9465 2.74671,-1.9335 6.49692,-1.93357 9.24503,-1.4e-4 0.54085,0.38052 1.53227,1.37194 1.91278,1.91279 1.93324,2.74786 1.93317,6.50236 0,9.24434 -0.35576,0.50455 -1.24986,1.42003 -1.7784,1.82089 -0.21172,0.16058 -1.47697,1.38643 -2.83428,2.74603 l -2.45182,2.45596 0.096,0.21692 c 0.15161,0.34275 0.25604,1.09389 0.22567,1.62322 -0.043,0.74981 -0.32176,1.60969 -0.71277,2.19878 -0.41425,0.62408 -0.73983,0.88365 -3.7411,2.98251 -1.57734,1.10307 -5.19451,3.63481 -8.03813,5.62608 -2.84364,1.99127 -5.28809,3.687 -5.43212,3.76828 -0.77297,0.43624 -1.77465,0.63345 -2.66293,0.52429 z m 1.39072,-1.76015 c 0.22231,-0.0708 0.51305,-0.23634 0.98003,-0.55815 0.36517,-0.25164 0.70254,-0.49526 0.74971,-0.54136 0.0561,-0.0548 0.11851,-0.26484 0.18029,-0.60629 0.052,-0.28734 0.28818,-1.60884 0.52485,-2.93667 0.23668,-1.32782 0.46184,-2.58582 0.50036,-2.79555 0.0556,-0.30274 0.0579,-0.39277 0.0109,-0.43682 -0.0325,-0.0305 -0.82287,-0.18893 -1.7563,-0.35202 -0.93341,-0.16309 -2.36402,-0.41269 -3.17912,-0.55467 -0.8151,-0.14198 -1.58957,-0.27931 -1.72103,-0.30517 -0.13147,-0.0259 -0.35148,-0.0611 -0.48892,-0.0782 -0.23274,-0.029 -0.25277,-0.0234 -0.29212,0.0824 -0.0504,0.13552 -0.83243,4.56145 -0.83243,4.71118 0,0.0925 1.22242,1.89482 2.17059,3.20035 0.52557,0.72366 0.98675,1.06852 1.65544,1.23791 0.3758,0.0952 1.08854,0.0633 1.49777,-0.0669 z m 4.97962,-3.39852 c 0.57239,-0.40051 1.05941,-0.76357 1.08228,-0.8068 0.0229,-0.0433 0.0642,-0.21843 0.0918,-0.38934 0.0276,-0.17091 0.14852,-0.85932 0.26868,-1.5298 0.12016,-0.67049 0.30448,-1.70311 0.4096,-2.29471 0.20256,-1.13995 0.29394,-1.6506 0.40638,-2.27081 0.0888,-0.48979 0.26173,-1.48019 0.29634,-1.69713 0.0147,-0.092 0.0439,-0.20111 0.065,-0.24242 0.029,-0.057 -0.17272,-0.28584 -0.83808,-0.95047 -0.85139,-0.85045 -0.87711,-0.87145 -0.90358,-0.73761 -0.0713,0.36043 -0.29854,1.63156 -0.72973,4.08179 -0.12684,0.72076 -0.2459,1.39384 -0.3763,2.12739 -0.0701,0.3944 -0.18899,1.07206 -0.26415,1.5059 -0.17049,0.98399 -0.34567,1.976 -0.50229,2.84448 -0.18015,0.99885 -0.19509,1.14472 -0.11407,1.11363 0.0371,-0.0142 0.53579,-0.35358 1.10819,-0.7541 z m 9.40272,-6.54326 c 1.11635,-0.77962 2.17705,-1.55567 2.35712,-1.72457 0.49895,-0.46798 0.80016,-1.16311 0.80016,-1.84656 0,-0.14332 -0.0166,-0.26058 -0.0369,-0.26058 -0.0203,0 -1.22953,1.19396 -2.68726,2.65325 -2.1074,2.10967 -2.67521,2.65326 -2.77147,2.65326 -0.0949,0 -0.42291,-0.3017 -1.51788,-1.39619 -0.76823,-0.76791 -1.41196,-1.38103 -1.4305,-1.36249 -0.0185,0.0185 -0.0241,0.0391 -0.0124,0.0457 0.0117,0.007 0.66996,0.65498 1.46269,1.44091 l 1.44132,1.42896 0.18265,-0.10708 c 0.10046,-0.0589 1.09602,-0.74494 2.21237,-1.52457 z m -10.0851,-6.13909 c 0,-0.007 -0.27428,-0.28126 -0.60953,-0.60953 l -0.60953,-0.59686 0.59686,0.60953 c 0.55443,0.56619 0.6222,0.63121 0.6222,0.59686 z m -4.26105,-4.25862 c -0.51617,-0.50364 -1.04624,-1.04479 -1.17793,-1.20255 l -0.23942,-0.28684 -0.52318,-0.084 c -0.28776,-0.0462 -1.56477,-0.26732 -2.83782,-0.49138 -1.27304,-0.22407 -2.62656,-0.46137 -3.00782,-0.52734 -0.38125,-0.066 -0.86229,-0.1514 -1.06897,-0.18986 -0.20668,-0.0384 -0.43472,-0.0699 -0.50676,-0.0699 -0.0911,0 -0.43505,0.21221 -1.13012,0.69733 -1.10908,0.77404 -1.22061,0.86404 -1.11547,0.89999 0.0377,0.0129 1.06887,0.19777 2.29152,0.41085 1.22265,0.21308 2.38435,0.41717 2.58155,0.45354 0.1972,0.0364 0.692,0.12292 1.09954,0.19234 0.40756,0.0694 0.91311,0.15715 1.12346,0.19498 0.21034,0.0378 0.50077,0.0896 0.64538,0.11497 0.14462,0.0254 0.43504,0.0776 0.64539,0.11603 0.21035,0.0384 1.08162,0.19094 1.93616,0.33895 0.85454,0.14803 1.69354,0.29685 1.86445,0.33074 0.17091,0.0339 0.3215,0.0518 0.33465,0.0397 0.0131,-0.012 -0.39843,-0.43395 -0.91461,-0.93758 z m 5.64744,-4.38167 0.0239,-1.02784 1.02784,-0.0239 1.02783,-0.0239 0.0125,-0.16732 c 0.007,-0.092 -0.004,-0.65137 -0.0239,-1.24297 l -0.0364,-1.07565 -0.98003,-0.0239 -0.98003,-0.0239 -0.0239,-1.00394 -0.0239,-1.00393 h -1.29077 -1.29077 l -0.006,0.97132 c -0.003,0.53422 -0.0252,0.9909 -0.0492,1.01484 -0.0239,0.0239 -0.47317,0.0494 -0.9983,0.0565 l -0.95479,0.013 v 1.24297 1.24296 l 0.95613,0.0125 c 0.83045,0.0108 0.96399,0.023 1.01589,0.0928 0.043,0.0579 0.0598,0.34279 0.0598,1.01932 0,0.51646 0.0147,0.95372 0.0326,0.97168 0.018,0.0179 0.58268,0.0269 1.25492,0.0199 l 1.22226,-0.0128 z m -8.09267,0.92027 c -0.39092,-1.33289 -0.501,-2.4136 -0.36411,-3.5744 0.029,-0.24608 0.0452,-0.47009 0.0359,-0.49778 -0.018,-0.0536 -4.47877,3.05125 -4.55683,3.17175 -0.0254,0.0391 -0.0308,0.0865 -0.012,0.10533 0.0322,0.0322 4.64159,0.86676 4.83235,0.87494 0.0632,0.003 0.0821,-0.0206 0.0647,-0.0798 z"
       id="path1571"
       inkscape:connector-curvature="0" />
    <path
       style="fill:#f7233f;stroke-width:0.04780642"
       d="m -707.53171,-322.15762 c -1.07917,-0.13263 -2.09555,-0.68341 -2.76607,-1.49896 -0.38875,-0.47284 -11.27815,-16.0358 -11.52481,-16.47107 -0.63654,-1.12331 -0.68548,-2.67986 -0.12169,-3.86982 0.32854,-0.69343 0.77071,-1.2279 1.40156,-1.69413 0.34901,-0.25794 5.46808,-3.84863 7.22543,-5.06816 0.30238,-0.20984 1.62124,-1.13183 2.9308,-2.04886 1.30957,-0.91703 2.44104,-1.70394 2.5144,-1.74868 0.0734,-0.0447 0.30631,-0.29647 0.51768,-0.5594 1.29743,-1.61391 2.90261,-2.6064 4.84491,-2.99565 0.46541,-0.0933 0.69479,-0.10947 1.55017,-0.10947 0.85539,0 1.08476,0.0162 1.55017,0.10947 1.1021,0.22086 2.22121,0.69564 3.09461,1.31286 0.57122,0.40368 1.38731,1.20049 1.82139,1.77835 0.19753,0.26296 0.37707,0.48505 0.39898,0.49354 0.0913,0.0353 0.45678,-0.33329 0.79664,-0.80346 0.44693,-0.61828 1.3741,-1.54947 1.93811,-1.9465 2.74671,-1.9335 6.49692,-1.93357 9.24503,-1.4e-4 0.54085,0.38052 1.53227,1.37194 1.91278,1.91279 1.93324,2.74786 1.93317,6.50236 0,9.24434 -0.35576,0.50455 -1.24986,1.42003 -1.7784,1.82089 -0.21172,0.16058 -1.47697,1.38643 -2.83428,2.74603 l -2.45182,2.45596 0.096,0.21692 c 0.15161,0.34275 0.25604,1.09389 0.22567,1.62322 -0.043,0.74981 -0.32176,1.60969 -0.71277,2.19878 -0.41425,0.62408 -0.73983,0.88365 -3.7411,2.98251 -1.57734,1.10307 -5.19451,3.63481 -8.03813,5.62608 -2.84364,1.99127 -5.28809,3.687 -5.43212,3.76828 -0.77297,0.43624 -1.77465,0.63345 -2.66293,0.52429 z m 1.39072,-1.76015 c 0.22231,-0.0708 0.51305,-0.23634 0.98003,-0.55815 0.36517,-0.25164 0.70254,-0.49526 0.74971,-0.54136 0.0561,-0.0548 0.11851,-0.26484 0.18029,-0.60629 0.052,-0.28734 0.28818,-1.60884 0.52485,-2.93667 0.23668,-1.32782 0.46184,-2.58582 0.50036,-2.79555 0.0556,-0.30274 0.0579,-0.39277 0.0109,-0.43682 -0.0325,-0.0305 -0.82287,-0.18893 -1.7563,-0.35202 -0.93341,-0.16309 -2.36402,-0.41269 -3.17912,-0.55467 -0.8151,-0.14198 -1.58957,-0.27931 -1.72103,-0.30517 -0.13147,-0.0259 -0.35148,-0.0611 -0.48892,-0.0782 -0.23274,-0.029 -0.25277,-0.0234 -0.29212,0.0824 -0.0504,0.13552 -0.83243,4.56145 -0.83243,4.71118 0,0.0925 1.22242,1.89482 2.17059,3.20035 0.52557,0.72366 0.98675,1.06852 1.65544,1.23791 0.3758,0.0952 1.08854,0.0633 1.49777,-0.0669 z m 4.97962,-3.39852 c 0.57239,-0.40051 1.05941,-0.76357 1.08228,-0.8068 0.0229,-0.0433 0.0642,-0.21843 0.0918,-0.38934 0.0276,-0.17091 0.14852,-0.85932 0.26868,-1.5298 0.12016,-0.67049 0.30448,-1.70311 0.4096,-2.29471 0.20256,-1.13995 0.29394,-1.6506 0.40638,-2.27081 0.0888,-0.48979 0.26173,-1.48019 0.29634,-1.69713 0.0147,-0.092 0.0439,-0.20111 0.065,-0.24242 0.029,-0.057 -0.17272,-0.28584 -0.83808,-0.95047 -0.85139,-0.85045 -0.87711,-0.87145 -0.90358,-0.73761 -0.0713,0.36043 -0.29854,1.63156 -0.72973,4.08179 -0.12684,0.72076 -0.2459,1.39384 -0.3763,2.12739 -0.0701,0.3944 -0.18899,1.07206 -0.26415,1.5059 -0.17049,0.98399 -0.34567,1.976 -0.50229,2.84448 -0.18015,0.99885 -0.19509,1.14472 -0.11407,1.11363 0.0371,-0.0142 0.53579,-0.35358 1.10819,-0.7541 z m 5.09106,-3.57657 c 1.04472,-0.73079 1.98554,-1.37831 2.09072,-1.43894 0.49235,-0.28386 4.28835,-2.98059 4.57806,-3.25232 0.49895,-0.46798 0.80016,-1.16311 0.80016,-1.84656 0,-0.14332 -0.0166,-0.26058 -0.0369,-0.26058 -0.0203,0 -1.22953,1.19396 -2.68726,2.65325 -2.1074,2.10967 -2.67521,2.65326 -2.77147,2.65326 -0.0949,0 -0.42291,-0.3017 -1.51788,-1.39619 -0.76823,-0.76791 -1.4087,-1.38429 -1.42325,-1.36974 -0.0287,0.0287 -0.97965,5.36527 -0.98059,5.50285 -3e-4,0.046 0.0106,0.0837 0.0242,0.0837 0.0136,0 0.87949,-0.59791 1.9242,-1.32869 z m -16.76891,0.54514 c 0,-0.0102 0.0847,-0.48892 0.18833,-1.06369 0.10358,-0.57478 0.54578,-3.07802 0.98265,-5.56276 0.43688,-2.48474 0.83459,-4.73283 0.88381,-4.99577 0.0764,-0.40819 0.0797,-0.4857 0.0224,-0.53031 -0.0369,-0.0287 -0.26019,-0.2134 -0.51718,-0.25676 -0.257,-0.0434 -0.78558,-0.006 -1.15369,-0.071 -1.40281,-0.24703 -2.08638,-0.36667 -3.0118,-0.52713 -0.52588,-0.0912 -1.13899,-0.19851 -1.36248,-0.23851 -0.2235,-0.04 -0.98362,-0.17201 -1.68916,-0.29335 l -1.2828,-0.22062 -0.14001,0.13414 c -0.48107,0.46089 -0.7433,1.20276 -0.6996,1.97919 0.0306,0.54342 0.12685,0.81335 0.47422,1.32976 0.26383,0.39223 6.83855,9.79103 7.08649,10.13039 0.12655,0.17322 0.21879,0.2518 0.21879,0.1864 z m 10.99547,-9.65092 c 0,-0.007 -0.27428,-0.28126 -0.60953,-0.60953 l -0.60953,-0.59686 0.59686,0.60953 c 0.55443,0.56619 0.6222,0.63121 0.6222,0.59686 z m -4.26105,-4.25862 c -0.51617,-0.50364 -1.04624,-1.04479 -1.17793,-1.20255 l -0.23942,-0.28684 -0.52318,-0.084 c -0.28776,-0.0462 -1.56477,-0.26732 -2.83782,-0.49138 -1.27304,-0.22407 -2.62656,-0.46137 -3.00782,-0.52734 -0.38125,-0.066 -0.86229,-0.1514 -1.06897,-0.18986 -0.20668,-0.0384 -0.43472,-0.0699 -0.50676,-0.0699 -0.0911,0 -0.43505,0.21221 -1.13012,0.69733 -1.10908,0.77404 -1.22061,0.86404 -1.11547,0.89999 0.0377,0.0129 1.06887,0.19777 2.29152,0.41085 1.22265,0.21308 2.38435,0.41717 2.58155,0.45354 0.1972,0.0364 0.692,0.12292 1.09954,0.19234 0.40756,0.0694 0.91311,0.15715 1.12346,0.19498 0.21034,0.0378 0.50077,0.0896 0.64538,0.11497 0.14462,0.0254 0.43504,0.0776 0.64539,0.11603 0.21035,0.0384 1.08162,0.19094 1.93616,0.33895 0.85454,0.14803 1.69354,0.29685 1.86445,0.33074 0.17091,0.0339 0.3215,0.0518 0.33465,0.0397 0.0131,-0.012 -0.39843,-0.43395 -0.91461,-0.93758 z m 5.64744,-4.38167 0.0239,-1.02784 1.02784,-0.0239 1.02783,-0.0239 0.0125,-0.16732 c 0.007,-0.092 -0.004,-0.65137 -0.0239,-1.24297 l -0.0364,-1.07565 -0.98003,-0.0239 -0.98003,-0.0239 -0.0239,-1.00394 -0.0239,-1.00393 h -1.29077 -1.29077 l -0.006,0.97132 c -0.003,0.53422 -0.0252,0.9909 -0.0492,1.01484 -0.0239,0.0239 -0.47317,0.0494 -0.9983,0.0565 l -0.95479,0.013 v 1.24297 1.24296 l 0.95613,0.0125 c 0.83045,0.0108 0.96399,0.023 1.01589,0.0928 0.043,0.0579 0.0598,0.34279 0.0598,1.01932 0,0.51646 0.0147,0.95372 0.0326,0.97168 0.018,0.0179 0.58268,0.0269 1.25492,0.0199 l 1.22226,-0.0128 z m -8.09267,0.92027 c -0.39092,-1.33289 -0.501,-2.4136 -0.36411,-3.5744 0.029,-0.24608 0.0452,-0.47009 0.0359,-0.49778 -0.018,-0.0536 -4.47877,3.05125 -4.55683,3.17175 -0.0254,0.0391 -0.0308,0.0865 -0.012,0.10533 0.0322,0.0322 4.64159,0.86676 4.83235,0.87494 0.0632,0.003 0.0821,-0.0206 0.0647,-0.0798 z"
       id="path1569"
       inkscape:connector-curvature="0"
       sodipodi:nodetypes="cssccsssssssscccsccccsccccsscccccccsccscsccsscccscsscsccscscsscsscssssscccssscssccsscsccsccsscccscccssccscccscscsssccccccccccccccccsscccscscccccccccccc" />
    <path
       style="fill:#0b445a;stroke-width:0.04780642"
       d="m -707.53171,-322.15762 c -1.07917,-0.13263 -2.09555,-0.68341 -2.76607,-1.49896 -0.38875,-0.47284 -11.27815,-16.0358 -11.52481,-16.47107 -0.63654,-1.12331 -0.68548,-2.67986 -0.12169,-3.86982 0.32854,-0.69343 0.77071,-1.2279 1.40156,-1.69413 0.3563,-0.26332 4.97514,-3.50248 7.51227,-5.2683 0.46014,-0.32026 1.82423,-1.27379 3.03132,-2.11897 1.20709,-0.84517 2.20357,-1.52781 2.2144,-1.51698 0.0108,0.0108 -0.0987,0.24228 -0.24346,0.51432 -0.33419,0.62816 -0.43588,0.88064 -0.65048,1.61516 l -0.17373,0.59466 -2.29221,1.60858 c -1.2607,0.88473 -2.2988,1.64253 -2.30687,1.68402 -0.008,0.0415 0.0242,0.0866 0.0717,0.10032 0.0475,0.0137 1.15128,0.21123 2.45281,0.43897 1.30153,0.22775 2.3933,0.43615 2.42617,0.46311 0.0329,0.027 0.0598,0.0701 0.0598,0.0959 0,0.0894 0.37828,0.85349 0.62375,1.25987 0.13572,0.22469 0.23362,0.42167 0.21756,0.43774 -0.0319,0.0318 0.0226,0.0408 -3.30334,-0.54326 -1.26209,-0.22162 -2.60665,-0.45692 -2.98791,-0.52289 -0.38125,-0.066 -0.86229,-0.1514 -1.06897,-0.18986 -0.20668,-0.0384 -0.43472,-0.0699 -0.50676,-0.0699 -0.0911,0 -0.43505,0.21221 -1.13012,0.69733 -1.109,0.77399 -1.22063,0.86405 -1.11547,0.89995 0.0377,0.0129 1.05812,0.19618 2.26762,0.40735 1.2095,0.21117 2.38195,0.41671 2.60545,0.45674 0.36445,0.0653 0.86247,0.15198 2.223,0.38696 0.23664,0.0409 0.52706,0.0929 0.64538,0.11567 0.26972,0.0518 0.69501,0.12664 2.58155,0.45398 1.93024,0.33492 2.05481,0.3583 2.20373,0.4137 0.0683,0.0254 1.20457,1.14178 2.52507,2.48084 l 2.40092,2.43467 -0.0995,0.53851 c -0.085,0.46019 -0.40742,2.27028 -0.65372,3.66984 -0.12684,0.72076 -0.2459,1.39384 -0.3763,2.12739 -0.0701,0.3944 -0.18899,1.07206 -0.26415,1.5059 -0.17049,0.98399 -0.34567,1.976 -0.50229,2.84448 -0.18015,0.99885 -0.19509,1.14472 -0.11407,1.11363 0.14163,-0.0544 2.15094,-1.48615 2.19047,-1.5609 0.0229,-0.0433 0.0642,-0.21843 0.0918,-0.38934 0.0276,-0.17091 0.14852,-0.85932 0.26868,-1.5298 0.12016,-0.67049 0.30448,-1.70311 0.4096,-2.29471 0.20256,-1.13995 0.29394,-1.6506 0.40638,-2.27081 0.0381,-0.21034 0.11216,-0.62985 0.16451,-0.93222 0.14732,-0.85094 0.17907,-1.00591 0.21307,-1.03991 0.0173,-0.0173 0.35494,0.29182 0.75017,0.68706 l 0.71862,0.71861 -0.49025,2.78031 c -0.26964,1.52917 -0.47751,2.79305 -0.46193,2.80863 0.0156,0.0156 0.88542,-0.57121 1.93299,-1.30398 1.04756,-0.73276 1.9907,-1.38192 2.09588,-1.44255 0.49235,-0.28386 4.28835,-2.98059 4.57806,-3.25232 0.50963,-0.478 0.80016,-1.16173 0.80016,-1.88306 v -0.29707 l 0.66769,-0.66641 0.66768,-0.66641 0.0958,0.2166 c 0.15149,0.34246 0.25589,1.09375 0.22553,1.62289 -0.043,0.74982 -0.32177,1.6097 -0.71278,2.19878 -0.41425,0.6241 -0.73982,0.88365 -3.74109,2.98251 -1.57735,1.10308 -5.19451,3.63482 -8.03813,5.62609 -2.84364,1.99127 -5.28809,3.687 -5.43212,3.76828 -0.77297,0.43624 -1.77465,0.63346 -2.66293,0.5243 z m 1.39072,-1.76015 c 0.22231,-0.0708 0.51305,-0.23634 0.98003,-0.55815 0.36517,-0.25164 0.70254,-0.49526 0.74971,-0.54136 0.0561,-0.0548 0.11851,-0.26484 0.18029,-0.60629 0.052,-0.28734 0.28818,-1.60884 0.52485,-2.93667 0.23668,-1.32782 0.46184,-2.58582 0.50036,-2.79555 0.0556,-0.30274 0.0579,-0.39277 0.0109,-0.43682 -0.0325,-0.0305 -0.82287,-0.18893 -1.7563,-0.35202 -0.93341,-0.16309 -2.36402,-0.41269 -3.17912,-0.55467 -0.8151,-0.14198 -1.58957,-0.27931 -1.72103,-0.30517 -0.13147,-0.0259 -0.35148,-0.0611 -0.48892,-0.0782 -0.23274,-0.029 -0.25277,-0.0234 -0.29212,0.0824 -0.0504,0.13552 -0.83243,4.56145 -0.83243,4.71118 0,0.0925 1.22242,1.89482 2.17059,3.20035 0.52557,0.72366 0.98675,1.06852 1.65544,1.23791 0.3758,0.0952 1.08854,0.0633 1.49777,-0.0669 z m -6.69823,-6.42995 c 0,-0.0102 0.0847,-0.48892 0.18833,-1.06369 0.10358,-0.57478 0.54578,-3.07802 0.98265,-5.56276 0.43688,-2.48474 0.83459,-4.73283 0.88381,-4.99577 0.0764,-0.40819 0.0797,-0.4857 0.0224,-0.53031 -0.0369,-0.0287 -0.16306,-0.23626 -0.42005,-0.27961 -0.257,-0.0434 -0.88271,0.0167 -1.25082,-0.0481 -1.40281,-0.24703 -2.08638,-0.36667 -3.0118,-0.52713 -0.52588,-0.0912 -1.13899,-0.19851 -1.36248,-0.23851 -0.2235,-0.04 -0.98362,-0.17201 -1.68916,-0.29335 l -1.2828,-0.22061 -0.14001,0.13413 c -0.48107,0.4609 -0.7433,1.20276 -0.6996,1.97919 0.0306,0.54342 0.12685,0.81335 0.47422,1.32976 0.26383,0.39223 6.83855,9.79103 7.08649,10.1304 0.12655,0.17321 0.21879,0.25179 0.21879,0.1864 z"
       id="path1567"
       inkscape:connector-curvature="0"
       sodipodi:nodetypes="cssccssscccscccssccsccsccccccscscsccssccssccccccsssccsccccccssscccccsccscsccsscccscssccsscsccsccs" />
    <path
       style="fill:#020303;stroke-width:0.04780642"
       d="m -707.72899,-322.22858 c -0.55696,-0.10084 -1.1526,-0.3379 -1.6121,-0.64162 -0.46777,-0.30919 -0.65902,-0.48518 -1.02868,-0.94664 -0.38811,-0.4845 -11.16585,-15.90108 -11.39706,-16.30247 -0.55677,-0.96655 -0.68885,-2.27609 -0.33854,-3.35653 0.23678,-0.73028 0.78034,-1.5439 1.32264,-1.97978 0.17511,-0.14075 1.83504,-1.31623 3.68874,-2.6122 1.85369,-1.29595 4.68941,-3.27985 6.30159,-4.40866 1.61219,-1.12881 2.94167,-2.04196 2.95441,-2.02921 0.0128,0.0128 -0.0843,0.22468 -0.21577,0.47098 -0.28318,0.53075 -0.52583,1.15066 -0.67481,1.72403 -0.0594,0.22864 -0.13238,0.42506 -0.16216,0.43648 -0.0661,0.0254 -4.1873,2.9066 -4.43851,3.10308 -0.32217,0.25199 -0.2505,0.31354 0.51392,0.44134 0.26294,0.0439 0.63941,0.10921 0.83661,0.145 0.1972,0.0358 0.56292,0.10083 0.81271,0.14451 0.24979,0.0437 0.95503,0.16887 1.5672,0.2782 l 1.11304,0.19878 0.16516,0.38055 c 0.13692,0.31545 0.41807,0.83818 0.66194,1.23074 0.0278,0.0448 0.0396,0.0925 0.0263,0.10588 -0.0134,0.0134 -1.79428,-0.28657 -3.95748,-0.66663 -3.61122,-0.63447 -3.94358,-0.68539 -4.06125,-0.62213 -0.0705,0.0379 -0.57993,0.38772 -1.13209,0.77739 -0.72297,0.51021 -1.00393,0.73466 -1.00393,0.80199 0,0.10161 0.0807,0.12467 0.98003,0.2801 1.35135,0.23353 3.10537,0.54126 3.7289,0.65421 0.14461,0.0262 0.94059,0.16555 1.76883,0.30967 0.82825,0.14412 1.68877,0.29503 1.91226,0.33537 0.96146,0.17352 3.91513,0.68764 4.1175,0.71669 0.21061,0.0302 0.26538,0.0761 1.1354,0.95027 0.81007,0.81396 0.9967,1.03245 0.88191,1.03245 -0.0177,0 -0.45335,-0.0748 -0.96808,-0.16612 -3.20377,-0.56864 -4.66628,-0.80883 -4.7438,-0.77908 -0.0461,0.0177 -0.1106,0.26915 -0.20107,0.78441 -0.0732,0.41711 -0.18374,1.03803 -0.24557,1.37985 -0.0618,0.34182 -0.15892,0.8904 -0.21575,1.21906 -0.0568,0.32867 -0.15364,0.87725 -0.21513,1.21907 -0.0615,0.34181 -0.15794,0.89039 -0.21435,1.21906 -0.0564,0.32867 -0.13471,0.76411 -0.17403,0.96765 -0.0393,0.20354 -0.0647,0.43934 -0.0565,0.52401 0.0181,0.18542 -0.18933,0.13388 2.1902,0.54428 0.5117,0.0883 1.05577,0.18377 1.57761,0.27697 0.2235,0.0399 0.65376,0.1159 0.95613,0.16885 0.30238,0.053 0.98001,0.17333 1.50585,0.2675 0.52585,0.0942 1.02042,0.16487 1.09907,0.15712 l 0.14298,-0.0141 0.10575,-0.59758 c 0.14361,-0.81158 0.23004,-1.29335 0.36879,-2.05568 0.10802,-0.5935 0.43881,-2.45268 0.57142,-3.21162 0.0307,-0.17562 0.0724,-0.33593 0.0927,-0.35623 0.0203,-0.0203 0.33808,0.26323 0.70617,0.63007 0.51355,0.51179 0.66392,0.68922 0.64627,0.76259 -0.0127,0.0526 -0.066,0.34301 -0.11845,0.64539 -0.0525,0.30237 -0.25804,1.46407 -0.45677,2.58155 -1.41983,7.98416 -1.51074,8.52101 -1.45447,8.58882 0.0411,0.0495 0.0728,0.0502 0.15791,0.003 0.18123,-0.0999 2.11463,-1.46381 2.16593,-1.52794 0.0266,-0.0333 0.0745,-0.21114 0.10645,-0.3952 0.1255,-0.72399 0.26408,-1.50422 0.59438,-3.34645 0.11786,-0.65733 0.25787,-1.44255 0.31115,-1.74493 0.38871,-2.20636 0.53188,-2.98159 0.55489,-3.00461 0.0495,-0.0495 1.36231,1.30186 1.339,1.37827 -0.0321,0.10519 -0.98122,5.50296 -0.98122,5.58019 0,0.0357 0.0321,0.0772 0.0712,0.0922 0.0919,0.0352 8.35514,-5.74339 8.70444,-6.08716 0.48311,-0.47545 0.73935,-1.07096 0.76685,-1.78212 l 0.0175,-0.45287 0.60947,-0.61083 c 0.33521,-0.33595 0.62358,-0.61083 0.64083,-0.61083 0.0619,0 0.18716,0.39398 0.26274,0.82638 0.21992,1.2582 -0.16496,2.62055 -1.00873,3.57059 -0.32283,0.36349 -0.63036,0.60709 -1.72212,1.36411 -0.52587,0.36464 -1.34336,0.93518 -1.81664,1.26786 -6.74798,4.74331 -13.12078,9.18247 -13.38579,9.32426 -0.84062,0.44977 -1.84335,0.61291 -2.75392,0.44806 z m 1.40381,-1.60198 c 0.48302,-0.12333 0.54696,-0.15726 1.34507,-0.71394 0.75464,-0.52636 0.66651,-0.3596 0.90949,-1.72103 0.0915,-0.51272 0.34073,-1.91106 0.55384,-3.10742 0.21311,-1.19635 0.39861,-2.2205 0.41222,-2.27588 0.0426,-0.17338 -0.0909,-0.2353 -0.75311,-0.34917 -0.67749,-0.11649 -2.57315,-0.44796 -5.06747,-0.88609 -0.83157,-0.14606 -1.5568,-0.26556 -1.61162,-0.26556 -0.11482,0 -0.15579,0.11947 -0.27189,0.79284 -0.0404,0.23442 -0.21445,1.22159 -0.38674,2.1937 -0.17228,0.97211 -0.305,1.83262 -0.29492,1.91225 0.0242,0.19086 2.26314,3.39918 2.62029,3.75471 0.6569,0.65392 1.61208,0.90375 2.54484,0.66559 z m -6.4464,-6.48656 c 0.0209,-0.0665 1.26857,-7.09075 1.82359,-10.26643 0.0643,-0.36811 0.15963,-0.90593 0.21178,-1.19516 0.10174,-0.56433 0.11715,-0.77024 0.0602,-0.80517 -0.032,-0.0196 -0.29572,-0.069 -1.8286,-0.34257 -0.22349,-0.0399 -0.90115,-0.15803 -1.5059,-0.26255 -0.60475,-0.10452 -1.28241,-0.22284 -1.5059,-0.26294 -0.2235,-0.0401 -0.90115,-0.15873 -1.5059,-0.26363 -0.60476,-0.10491 -1.47439,-0.25664 -1.93253,-0.33718 -0.97593,-0.17158 -0.92023,-0.18685 -1.29693,0.35569 -0.31671,0.45614 -0.45215,0.91856 -0.44988,1.53589 0.002,0.55284 0.096,0.92812 0.32298,1.29078 0.0823,0.13147 1.5041,2.17519 3.15956,4.54161 4.65122,6.64878 4.25532,6.09532 4.36014,6.09532 0.0336,0 0.0729,-0.0377 0.0874,-0.0837 z"
       id="path1565"
       inkscape:connector-curvature="0" />
  </g>
</svg>
