<?xml version="1.0" encoding="UTF-8" standalone="no"?>
<svg
   xmlns:dc="http://purl.org/dc/elements/1.1/"
   xmlns:cc="http://creativecommons.org/ns#"
   xmlns:rdf="http://www.w3.org/1999/02/22-rdf-syntax-ns#"
   xmlns:svg="http://www.w3.org/2000/svg"
   xmlns="http://www.w3.org/2000/svg"
   xmlns:sodipodi="http://sodipodi.sourceforge.net/DTD/sodipodi-0.dtd"
   xmlns:inkscape="http://www.inkscape.org/namespaces/inkscape"
   id="f7bb3db6-0aca-42e3-bcc4-5e9b3a55e19d"
   data-name="Layer 1"
   width="1553.2844"
   height="894.2243"
   viewBox="0 0 1553.2844 894.22426"
   version="1.1"
   sodipodi:docname="virus_tracker_mobile_application_wt2.svg"
   inkscape:version="0.92.3 (2405546, 2018-03-11)">
  <metadata
     id="metadata81">
    <rdf:RDF>
      <cc:Work
         rdf:about="">
        <dc:format>image/svg+xml</dc:format>
        <dc:type
           rdf:resource="http://purl.org/dc/dcmitype/StillImage" />
        <dc:title>Mobile_application</dc:title>
      </cc:Work>
    </rdf:RDF>
  </metadata>
  <defs
     id="defs79" />
  <sodipodi:namedview
     pagecolor="#ffffff"
     bordercolor="#666666"
     borderopacity="1"
     objecttolerance="10"
     gridtolerance="10"
     guidetolerance="10"
     inkscape:pageopacity="0"
     inkscape:pageshadow="2"
     inkscape:window-width="2560"
     inkscape:window-height="1377"
     id="namedview77"
     showgrid="false"
     inkscape:zoom="3.1836271"
     inkscape:cx="324.41024"
     inkscape:cy="164.79551"
     inkscape:window-x="-8"
     inkscape:window-y="-8"
     inkscape:window-maximized="1"
     inkscape:current-layer="layer1"
     fit-margin-top="0"
     fit-margin-left="0"
     fit-margin-right="0"
     fit-margin-bottom="0" />
  <title
     id="title2">Mobile_application</title>
  <flowRoot
     xml:space="preserve"
     id="flowRoot3839"
     style="font-style:normal;font-weight:normal;font-size:40px;line-height:1.25;font-family:sans-serif;letter-spacing:0px;word-spacing:0px;fill:#000000;fill-opacity:1;stroke:none"
     transform="translate(300.69518,200.69039)"><flowRegion
       id="flowRegion3841"><rect
         id="rect3843"
         width="122.79401"
         height="87.428307"
         x="676.79224"
         y="351.77362" /></flowRegion><flowPara
       id="flowPara3845"></flowPara></flowRoot>  <g
     inkscape:groupmode="layer"
     id="layer1"
     inkscape:label="bg"
     transform="translate(300.69518,200.69039)">
    <path
       style="fill:#698a96;fill-opacity:1;stroke-width:0.31999999"
       d="m -300.69079,629.38582 v -64.14824 l 3.59999,-2.1472 c 21.57831,-12.87024 50.68521,-22.05779 91.05301,-28.7408 18.8222,-3.11606 33.8932,-5.03993 77.827,-9.93494 49.651695,-5.5321 65.637295,-7.54381 90.522195,-11.39181 40.4666001,-6.25747 78.0813,-14.6809 109.2011,-24.4544 30.983205,-12.70726 63.121445,-22.96305 87.476705,-35.33219 26.2517,-13.37802 51.6459,-29.34713 95.214,-59.87542 29.0902,-20.38355 40.946,-29.18877 40.946,-30.41034 0,-1.15638 0.578,-1.80896 3.2791,-3.70236 140.0903,-142.97448 314.3783,-210.86616 487.7197,-257.74568 19.6193,-5.286272 29.6184,-8.276902 44.4427,-13.292292 25.1537,-8.51002 46.0518,-17.2183 69.0185,-28.76005 65.3429,-32.8376 114.19859,-76.23315 142.52879,-126.599867 3.18,-5.65339 9.2491,-18.10949 11.5532,-23.71131 8.2058,-19.950301 12.878,-38.814611 15.1194,-61.044931 0.9941,-9.85962 0.7319,-39.5014 -0.4167,-47.12 l -0.181,-1.2 h 92.1882 92.1881 v 446.87999 446.87994 h -776.63999 -776.64 z"
       id="path3820"
       inkscape:connector-curvature="0"
       sodipodi:nodetypes="cccsssccsscccscssccccccccc" />
    <g
       id="g4706"
       transform="translate(-234.95479,-200.70781)">
      <path
         style="fill:#759696;fill-opacity:1;stroke-width:0.31999999"
         d="M -65.740393,169.49164 V 0.01741924 H 63.426817 192.59403 l -0.21042,2.73741596 c -0.31094,4.0452933 -1.97312,16.9012398 -3.09303,23.9228068 -5.36935,33.664415 -14.89617,65.900031 -29.09852,98.459768 -2.97601,6.8227 -11.97966,24.98919 -15.54259,31.36 -19.4383,34.75726 -40.74246,63.03092 -68.130703,90.41916 -27.31226,27.31225 -56.136229,49.04037 -90.231502,68.01839 -13.603063,7.57169 -35.67007,17.89275 -48.507658,22.68772 -1.32,0.49306 -2.652,0.99696 -2.96,1.11981 -0.53291,0.21258 -0.56,-7.97504 -0.56,-169.25085 z"
         id="path4708"
         inkscape:connector-curvature="0" />
    </g>
  </g>
  <g
     inkscape:groupmode="layer"
     id="layer2"
     inkscape:label="vg"
     transform="translate(300.69518,200.69039)">
    <path
       style="fill:#3f3d56"
       d="m 803.25,740.67528 q -36.47625,-5.71034 -70.14288,-9.71417 L 741.75,713.67528 c -3,-1 -16,9 -16,9 l 11,-50 c -15,2 -22,53 -22,53 l -17,-17 8.36835,19.24713 C 637.43707,720.70574 578.17157,718.4536 528.35254,718.97014 L 535.75,704.17528 c -3,-1 -16,9 -16,9 l 11,-50 c -15,2 -22,53 -22,53 l -17,-17 8.8634,20.38586 A 997.85166,997.85166 0 0 0 398.59082,727.777 c 7.38153,-22.99578 33.15918,-45.10174 33.15918,-45.10174 -19.82056,6.16638 -30.13214,16.2124 -35.4693,25.5246 A 401.561,401.561 0 0 1 417.75,569.17528 c 0,0 -40,90 -34,150 l 0.76129,10.65808 C 349.71191,735.26213 332.25,740.67528 332.25,740.67528 Z"
       transform="translate(-160.25,-159.32472)"
       id="path4"
       inkscape:connector-curvature="0" />
    <path
       style="fill:#3f3d56"
       d="m 894.92236,616.811 a 12,12 0 1 1 12,-12 12.01375,12.01375 0 0 1 -12,12 z m 0,-22 a 10,10 0 1 0 10,10 10.01114,10.01114 0 0 0 -10,-10 z"
       transform="translate(-160.25,-159.32472)"
       id="path6"
       inkscape:connector-curvature="0" />
    <path
       style="fill:#3f3d56"
       d="M 990.75,739.10087 H 971.00885 V 719.35972 H 990.75 Z m -18.2226,-1.51855 h 16.70405 v -16.704 H 972.5274 Z"
       transform="translate(-160.25,-159.32472)"
       id="path8"
       inkscape:connector-curvature="0" />
    <path
       style="fill:#3f3d56"
       d="m 322.39387,740.181 -13.4651,-14.43621 14.43623,-13.46514 13.46509,14.43621 z M 311.075,725.81944 322.46854,738.0347 334.68379,726.64116 323.29028,714.4259 Z"
       transform="translate(-160.25,-159.32472)"
       id="path10"
       inkscape:connector-curvature="0" />
    <rect
       style="fill:#3f3d56"
       x="21.672359"
       y="578.66156"
       width="857.82764"
       height="2"
       id="rect12" />
    <path
       style="fill:#3f3d56"
       d="m 713.725,293.08473 v 65.68 a 2.29614,2.29614 0 0 1 -2.29,2.29 h -1.62989 v 342.15 a 35.702,35.702 0 0 1 -35.70007,35.7 H 460.31509 a 35.69346,35.69346 0 0 1 -35.69006,-35.7 v -330.15 h -1.18 a 1.6176,1.6176 0 0 1 -1.62,-1.61 v -37.38 a 1.61971,1.61971 0 0 1 1.62,-1.62 h 1.18 v -14.08 H 423.435 a 1.69647,1.69647 0 0 1 -1.68994,-1.7 v -36.87 a 1.69432,1.69432 0 0 1 1.68994,-1.69 h 1.19 v -19.22 h -1.21 a 1.498,1.498 0 0 1 -1.5,-1.5 v -20.12 a 1.50661,1.50661 0 0 1 1.5,-1.51 h 1.21 v -40.74 a 35.69136,35.69136 0 0 1 35.69006,-35.69 H 674.105 a 35.69991,35.69991 0 0 1 35.70007,35.69 v 95.78 h 1.62993 a 2.29609,2.29609 0 0 1 2.29,2.29 z"
       id="path14"
       transform="translate(-160.25,-159.32472)"
       inkscape:connector-curvature="0" />
    <rect
       style="fill:#e6e8ec"
       x="379.97864"
       y="18.306801"
       width="39.823429"
       height="8.0864201"
       rx="2.5418899"
       id="rect16" />
    <circle
       style="fill:#e6e8ec"
       cx="430.41006"
       cy="22.35"
       r="4.5866499"
       id="circle18" />
    <path
       style="fill:#009abf"
       d="m 692.71,202.07524 v 504.09 a 22.58,22.58 0 0 1 -7.96,17.23 22.6419,22.6419 0 0 1 -14.69,5.41 H 465.41 a 22.58668,22.58668 0 0 1 -10.46,-2.55 21.15539,21.15539 0 0 1 -2.2,-1.3 22.66834,22.66834 0 0 1 -9.99,-18.79 v -504.09 a 22.649,22.649 0 0 1 22.65,-22.65 h 30.63 v 3.93 a 18.65015,18.65015 0 0 0 18.65,18.65 h 104.08 a 18.65009,18.65009 0 0 0 18.65,-18.65 v -3.93 h 32.64 a 22.64264,22.64264 0 0 1 22.65,22.65 z"
       transform="translate(-160.25,-159.32472)"
       id="path20"
       inkscape:connector-curvature="0" />
    <path
       style="opacity:0.3;fill:#ffffff"
       d="m 692.71,634.00524 v 72.16 a 22.58,22.58 0 0 1 -7.96,17.23 22.6419,22.6419 0 0 1 -14.69,5.41 H 465.41 a 22.58668,22.58668 0 0 1 -10.46,-2.55 21.15539,21.15539 0 0 1 -2.2,-1.3 22.66834,22.66834 0 0 1 -9.99,-18.79 v -72.13 a 186.97056,186.97056 0 0 1 249.95,-0.03 z"
       transform="translate(-160.25,-159.32472)"
       id="path22"
       inkscape:connector-curvature="0" />
    <path
       style="opacity:0.3;fill:#ffffff"
       d="m 680.54,726.23528 a 22.40961,22.40961 0 0 1 -10.48,2.57 H 465.41 a 22.58668,22.58668 0 0 1 -10.46,-2.55 122.16129,122.16129 0 0 1 225.59,-0.02 z"
       transform="translate(-160.25,-159.32472)"
       id="path24"
       inkscape:connector-curvature="0" />
    <path
       style="opacity:0.3;fill:#ffffff"
       d="M 636,727.44483 A 13.56058,13.56058 0 0 1 629.65831,729 H 505.81957 A 13.66765,13.66765 0 0 1 499.48999,727.4569 73.92279,73.92279 0 0 1 636,727.44483 Z"
       transform="translate(-160.25,-159.32472)"
       id="path26"
       inkscape:connector-curvature="0" />
    <path
       style="fill:#ffffff"
       d="m 619.7959,374.5752 c -20.52881,0 -43.05811,-3.90918 -60.646,-17.1001 -24.4873,-18.36524 -54.65674,-17.38526 -75.65332,-13.32813 a 164.86282,164.86282 0 0 0 -40.27441,13.415 l -0.92481,-1.77344 a 166.95707,166.95707 0 0 1 40.76758,-13.59521 c 21.40918,-4.14356 52.19678,-5.13379 77.28516,13.68213 46.99951,35.24951 131.15771,3.59033 132.00146,3.26758 l 0.7168,1.86718 a 242.3548,242.3548 0 0 1 -48.70606,11.85694 186.20165,186.20165 0 0 1 -24.5664,1.70805 z"
       transform="translate(-160.25,-159.32472)"
       id="path28"
       inkscape:connector-curvature="0" />
    <path
       style="opacity:0.3;fill:#ffffff"
       d="m 442.75,356.67528 c 0,0 69,-16.71229 117,6.16983 48,22.88212 133,-0.16983 133,-0.16983"
       transform="translate(-160.25,-159.32472)"
       id="path30"
       inkscape:connector-curvature="0" />
    <path
       style="opacity:0.3;fill:#ffffff"
       d="m 507.89111,382.63623 a 131.45576,131.45576 0 0 1 -24.82617,-2.479 166.95732,166.95732 0 0 1 -40.76758,-13.59523 l 0.92481,-1.77344 a 164.86232,164.86232 0 0 0 40.27441,13.415 c 20.99561,4.05664 51.16553,5.03711 75.65332,-13.32812 25.06641,-18.79981 60.17725,-18.74707 85.2124,-15.39209 a 242.3552,242.3552 0 0 1 48.70606,11.85693 l -0.7168,1.86719 c -0.84472,-0.32373 -85.001,-31.9834 -132.00146,3.26758 -16.4521,12.3394 -35.35694,16.16118 -52.45899,16.16118 z"
       transform="translate(-160.25,-159.32472)"
       id="path32"
       inkscape:connector-curvature="0" />
    <path
       style="opacity:0.3;fill:#ffffff"
       d="m 508.231,374.5835 c -34.63428,0 -65.39063,-12.4253 -65.852,-12.61524 l 0.76172,-1.84961 c 0.68457,0.28223 69.08837,27.89942 116.10009,0.0645 47.82471,-28.31983 132.90576,-3.041 133.75928,-2.78223 l -0.58008,1.91406 c -0.84472,-0.25586 -85.09277,-25.28125 -132.16064,2.58887 -16.06259,9.51119 -34.54062,12.67969 -52.02837,12.67969 z"
       transform="translate(-160.25,-159.32472)"
       id="path34"
       inkscape:connector-curvature="0" />
    <path
       style="opacity:0.3;fill:#ffffff"
       d="m 442.76,359.50545 c 0,0 68.99,22.88212 116.99,0 48,-22.88212 132.96,-2.16209 132.96,-2.16209"
       transform="translate(-160.25,-159.32472)"
       id="path36"
       inkscape:connector-curvature="0" />
    <path
       style="fill:#ffb8b8"
       d="m 710.51913,420.72469 v 29.15278 c 0,0 2.33223,32.65113 15.15945,48.97669 0,0 20.99,29.73584 23.90529,23.32223 l -3.59045,-21.11522 -12.15205,-11.5359 -6.41362,-36.14946 -1.74917,-32.65112 z"
       transform="translate(-160.25,-159.32472)"
       id="path38"
       inkscape:connector-curvature="0" />
    <polygon
       style="fill:#ffb8b8"
       points="679.124,524.941 679.124,546.514 661.633,552.928 661.633,527.856 "
       id="polygon40" />
    <polygon
       style="fill:#ffb8b8"
       points="643.558,522.609 655.219,548.846 638.894,555.843 635.395,530.189 "
       id="polygon42" />
    <path
       style="fill:#2f2e41"
       d="m 832.96085,480.77943 c 0,0 23.32223,210.48313 14.57639,211.06619 -8.74584,0.58306 -25.65445,11.66112 -25.65445,4.08139 0,-7.57973 -13.41029,-106.11615 -13.41029,-106.11615 L 795.64528,539.085 v 69.9667 l 13.41028,79.29559 c 0,0 -12.82723,16.90861 -22.15612,6.99667 l -19.8239,-77.54642 c 0,0 -26.23754,-117.77727 -25.07139,-127.10616 0,0 60.05474,-51.30891 90.9567,-9.91195 z"
       transform="translate(-160.25,-159.32472)"
       id="path44"
       inkscape:connector-curvature="0" />
    <path
       style="fill:#2f2e41"
       d="m 828.2964,707.00507 c 0,0 4.66445,-9.912 15.15945,-3.49833 l 8.74584,10.495 c 0,0 22.54831,18.67354 6.54831,22.67354 -16.49131,4.12283 -26.37221,-0.26326 -26.37221,-0.26326 0,0 -2.91528,-1.74916 -5.2475,-1.74916 -2.33222,0 -7.57973,-4.08139 -7.57973,-5.24751 0,-1.16612 1.74917,-21.82722 1.74917,-21.82722 a 3.67667,3.67667 0 0 1 4.08139,0.58305 c 1.74917,1.74917 2.91528,-1.16611 2.91528,-1.16611 z"
       transform="translate(-160.25,-159.32472)"
       id="path46"
       inkscape:connector-curvature="0" />
    <path
       style="fill:#2f2e41"
       d="m 793.89611,703.50674 c 0,0 11.07806,-8.74584 16.32556,1.16611 0,0 3.304,1.16611 3.69269,0 0.38869,-1.16611 3.304,-1.74917 3.304,4.66444 0,6.41361 3.16611,22.41029 0.25083,22.99334 -2.91528,0.58305 -5.83055,2.33223 -5.2475,4.66445 0.58305,2.33222 -3.16611,2.66111 -16.57639,2.07806 -13.41028,-0.58305 -13.99334,-5.83056 -13.99334,-5.83056 0,0 0,-7.57972 3.49833,-11.66111 3.49833,-4.08139 8.74582,-18.07473 8.74582,-18.07473 z"
       transform="translate(-160.25,-159.32472)"
       id="path48"
       inkscape:connector-curvature="0" />
    <path
       style="fill:#ffb8b8"
       d="m 772.32305,321.6052 c 0,0 -2.91528,21.57307 15.7425,29.15279 18.65778,7.57972 -41.397,32.65113 -47.22752,18.07473 -5.83052,-14.5764 1.16612,-19.24084 1.16612,-19.24084 0,0 5.83055,-5.83056 0.58305,-21.57306 z"
       transform="translate(-160.25,-159.32472)"
       id="path50"
       inkscape:connector-curvature="0" />
    <circle
       style="fill:#ffb8b8"
       cx="593.41528"
       cy="151.78548"
       r="25.654449"
       id="circle52" />
    <path
       style="fill:#f2f2f2"
       d="m 783.40111,357.75466 c 0,0 -17.49168,9.32889 -34.40029,2.33223 -16.90861,-6.99666 -16.32557,23.32223 -16.32557,23.32223 l 8.74584,22.73917 60.6378,-5.83056 -4.08139,-34.98334 z"
       transform="translate(-160.25,-159.32472)"
       id="path54"
       inkscape:connector-curvature="0" />
    <path
       style="fill:#3f3d56"
       d="m 774.71069,337.80432 a 21.16638,21.16638 0 0 1 14.521,11.20451 l 27.98668,8.74583 6.99667,9.91195 -8.16278,71.71586 c 0,0 15.15945,14.57639 15.15945,22.73918 0,8.16279 18.65778,36.14945 9.32889,32.65112 -9.32889,-3.49833 -26.23751,-15.74251 -26.23751,-15.74251 0,0 -42.56307,1.74917 -55.97335,13.41029 -13.41028,11.66112 -18.65779,8.16278 -18.65779,8.16278 0,0 -13.99334,-60.6378 -14.57639,-69.9667 -0.58305,-9.3289 -16.90862,-65.30224 -16.90862,-65.30224 l 29.15279,-16.32556 7.42538,-8.42509 20.5613,32.91343 18.65775,-22.73917 c 0,0 -9.21806,-7.24957 -9.27347,-12.95368 z"
       transform="translate(-160.25,-159.32472)"
       id="path56"
       inkscape:connector-curvature="0" />
    <path
       style="fill:#ffb8b8"
       d="m 832.96085,412.5619 3.49833,18.65779 c 0,0 15.74251,58.30558 13.41028,78.12947 0,0 1.74917,44.31224 -8.16278,39.06474 -9.91195,-5.2475 -4.66444,-37.31557 -4.66444,-37.31557 l -13.99334,-57.72252 -7.57973,-33.81724 z"
       transform="translate(-160.25,-159.32472)"
       id="path58"
       inkscape:connector-curvature="0" />
    <path
       style="fill:#3f3d56"
       d="m 818.38445,364.16828 5.83056,3.49833 c 0,0 22.15612,46.06141 16.90862,49.55974 -5.2475,3.49833 -27.98663,11.07806 -27.98663,11.07806 z"
       transform="translate(-160.25,-159.32472)"
       id="path60"
       inkscape:connector-curvature="0" />
    <polygon
       style="fill:#3f3d56"
       points="570.093,272.478 561.93,206.01 548.228,205.718 545.022,211.257 549.103,267.814 "
       id="polygon62" />
    <path
       style="fill:#2f2e41"
       d="m 774.55608,289.41318 4.62409,-1.68149 c 0,0 -9.6685,-9.66851 -23.12045,-8.82773 l 3.78344,-3.78338 c 0,0 -9.24818,-3.36292 -17.65558,5.46481 -4.4196,4.64055 -9.53315,10.09526 -12.72091,16.23994 h -4.95208 l 2.06681,4.13363 -7.23384,4.13362 7.42483,-0.7425 a 20.85851,20.85851 0 0 0 0.70227,10.70563 l 1.68143,4.624 c 0,0 6.726,-13.45182 6.726,-15.13331 v 4.2037 c 0,0 4.62409,-3.78332 4.62409,-6.30552 l 2.52221,2.94259 1.2611,-4.62409 15.5537,4.62409 -2.52221,-3.78331 9.66851,1.26111 -3.78344,-4.62409 c 0,0 10.92961,5.4648 11.35006,10.08889 0.42045,4.62409 3.306,10.65165 3.306,10.65165 l 3.49833,-4.08139 c 0,0 5.38636,-19.18133 -6.80436,-25.48685 z"
       transform="translate(-160.25,-159.32472)"
       id="path64"
       inkscape:connector-curvature="0" />
    <ellipse
       style="fill:#ffb8b8"
       cx="614.98834"
       cy="152.07701"
       rx="2.0407"
       ry="5.2474999"
       id="ellipse66" />
    <path
       style="fill:#3f3d56"
       d="m 201.884,706.3411 c 12.42842,23.049 38.806,32.94351 38.806,32.94351 0,0 6.22712,-27.47543 -6.2013,-50.52448 -12.42842,-23.04905 -38.806,-32.9435 -38.806,-32.9435 0,0 -6.22711,27.47543 6.2013,50.52447 z"
       transform="translate(-160.25,-159.32472)"
       id="path68"
       inkscape:connector-curvature="0" />
    <path
       style="fill:#009abf"
       d="m 210.42653,698.75813 c 22.43841,13.49969 31.08016,40.3138 31.08016,40.3138 0,0 -27.73812,4.92679 -50.17653,-8.57291 -22.43841,-13.4997 -31.08016,-40.3138 -31.08016,-40.3138 0,0 27.73811,-4.92678 50.17653,8.57291 z"
       transform="translate(-160.25,-159.32472)"
       id="path70"
       inkscape:connector-curvature="0" />
    <path
       style="opacity:0.3;fill:#ffffff"
       d="m 442.76,356.67528 c 0,0 68.99,-36 116.99,0 48,36 132.96,3.40157 132.96,3.40157"
       transform="translate(-160.25,-159.32472)"
       id="path72"
       inkscape:connector-curvature="0" />
    <circle
       style="fill:#ffffff"
       cx="407.75"
       cy="552.67529"
       r="11"
       id="circle74" />
    <text
       xml:space="preserve"
       style="font-style:normal;font-weight:normal;font-size:40px;line-height:1.25;font-family:sans-serif;letter-spacing:0px;word-spacing:0px;fill:#000000;fill-opacity:1;stroke:none"
       x="288.97855"
       y="253.42273"
       id="text3788"><tspan
         sodipodi:role="line"
         x="288.97855"
         y="253.42273"
         id="tspan3792"
         style="font-style:normal;font-variant:normal;font-weight:bold;font-stretch:normal;font-family:sans-serif;-inkscape-font-specification:'sans-serif Bold';fill:#ffffff">spread the </tspan><tspan
         sodipodi:role="line"
         x="288.97855"
         y="303.42273"
         id="tspan3804"
         style="font-style:normal;font-variant:normal;font-weight:bold;font-stretch:normal;font-family:sans-serif;-inkscape-font-specification:'sans-serif Bold';fill:#ffffff">app - </tspan><tspan
         sodipodi:role="line"
         x="288.97855"
         y="353.42273"
         id="tspan3796"
         style="font-style:normal;font-variant:normal;font-weight:bold;font-stretch:normal;font-family:sans-serif;-inkscape-font-specification:'sans-serif Bold';fill:#ffffff">not </tspan><tspan
         sodipodi:role="line"
         x="288.97855"
         y="403.42273"
         id="tspan3800"
         style="font-style:normal;font-variant:normal;font-weight:bold;font-stretch:normal;font-family:sans-serif;-inkscape-font-specification:'sans-serif Bold';fill:#ffffff">the virus</tspan></text>
  </g>
</svg>
